<?xml version="1.0" encoding="utf-8"?>
<!-- Generator: Adobe Illustrator 25.0.0, SVG Export Plug-In . SVG Version: 6.00 Build 0)  -->
<svg version="1.1" id="DC" xmlns="http://www.w3.org/2000/svg" xmlns:xlink="http://www.w3.org/1999/xlink" x="0px" y="0px"
	 viewBox="0 0 500.7 88.4" style="enable-background:new 0 0 500.7 88.4;" xml:space="preserve">
<style type="text/css">
	.st0{fill:#B150FF;}
	.st1{fill:#FC980F;}
	.st2{fill:#FFFFFF;stroke:#FFFFFF;stroke-width:1.5;stroke-miterlimit:10;}
	.st3{fill:none;stroke:#90D24A;stroke-width:1.5;stroke-miterlimit:10;}
	.st4{fill:#90D24A;}
	.st5{fill:none;stroke:#B150FF;stroke-width:1.5;stroke-miterlimit:10;}
	.st6{enable-background:new    ;}
	.st7{fill:#662D91;}
</style>
<g>
	<path class="st0" d="M8.4,79.8c20,0,36.3-16.2,36.3-36.3S28.4,7.2,8.4,7.2"/>
	<path class="st1" d="M8.4,68.8c14,0,25.3-11.3,25.3-25.3S22.4,18.1,8.4,18.1"/>
	<path class="st0" d="M8.4,57.8c7.9,0,14.3-6.4,14.3-14.3S16.3,29.2,8.4,29.2"/>
	<path class="st2" d="M8.4,47.1c2,0,3.6-1.6,3.6-3.6s-1.6-3.6-3.6-3.6"/>
	<g>
		<path class="st3" d="M8.4,47.1c2,0,3.6-1.6,3.6-3.6s-1.6-3.6-3.6-3.6"/>
		<path class="st3" d="M8.4,65.2c12,0,21.7-9.7,21.7-21.7S20.4,21.8,8.4,21.8"/>
		<path class="st3" d="M8.4,61.6c10,0,18.1-8.1,18.1-18.1S18.4,25.4,8.4,25.4"/>
		<path class="st3" d="M8.4,58c8,0,14.5-6.5,14.5-14.5S16.4,29,8.4,29"/>
		<path class="st3" d="M8.4,54.3c6,0,10.9-4.9,10.9-10.9S14.4,32.6,8.4,32.6"/>
		<path class="st3" d="M8.4,50.7c4,0,7.2-3.2,7.2-7.2s-3.2-7.2-7.2-7.2"/>
		<path class="st3" d="M8.4,76.1c18,0,32.6-14.6,32.6-32.6S26.4,10.9,8.4,10.9"/>
		<path class="st3" d="M8.4,72.4c16,0,29-13,29-29s-13-29-29-29"/>
		<path class="st3" d="M8.4,68.8c14,0,25.3-11.3,25.3-25.3S22.4,18.1,8.4,18.1"/>
		<path class="st3" d="M8.4,79.7c20,0,36.2-16.2,36.2-36.2S28.4,7.3,8.4,7.3"/>
	</g>
</g>
<g>
	<path class="st4" d="M82.3,7.3c-20,0-36.2,16.2-36.2,36.2s16.2,36.2,36.2,36.2"/>
	<path class="st1" d="M82.3,18.1c-14,0-25.3,11.4-25.3,25.3s11.4,25.3,25.3,25.3"/>
	<path class="st4" d="M82.3,29.2c-7.9,0-14.3,6.4-14.3,14.3s6.4,14.3,14.3,14.3"/>
	<path class="st2" d="M82.3,39.9c-2,0-3.6,1.6-3.6,3.6s1.6,3.6,3.6,3.6"/>
	<g>
		<path class="st5" d="M82.3,39.9c-2,0-3.6,1.6-3.6,3.6s1.6,3.6,3.6,3.6"/>
		<path class="st5" d="M82.3,21.8c-12,0-21.7,9.7-21.7,21.7s9.7,21.7,21.7,21.7"/>
		<path class="st5" d="M82.3,25.4c-10,0-18.1,8.1-18.1,18.1s8.1,18.1,18.1,18.1"/>
		<path class="st5" d="M82.3,29c-8,0-14.5,6.5-14.5,14.5S74.3,58,82.3,58"/>
		<path class="st5" d="M82.3,32.6c-6,0-10.9,4.9-10.9,10.9s4.9,10.9,10.9,10.9"/>
		<path class="st5" d="M82.3,36.2c-4,0-7.2,3.2-7.2,7.2s3.2,7.2,7.2,7.2"/>
		<path class="st5" d="M82.3,10.9c-18,0-32.6,14.6-32.6,32.6s14.6,32.6,32.6,32.6"/>
		<path class="st5" d="M82.3,14.5c-16,0-29,13-29,29s13,29,29,29"/>
		<path class="st5" d="M82.3,18.1c-14,0-25.3,11.4-25.3,25.3s11.4,25.3,25.3,25.3"/>
		<path class="st5" d="M82.3,7.3c-20,0-36.2,16.2-36.2,36.2s16.2,36.2,36.2,36.2"/>
	</g>
</g>
<g>
	<g class="st6">
		<path class="st7" d="M113.2,40.2c0-0.4,0.2-0.8,0.5-1.1c0.3-0.3,0.8-0.5,1.5-0.5c1-0.1,2-0.1,3-0.1h4.6c0.1,0,0.3,0,0.3-0.1
			c0.1-0.1,0.1-0.2,0.1-0.4v-5c0-0.4,0.3-0.7,0.7-0.7h1.7c0.4,0,0.7,0.3,0.7,0.7v16.9c0,0.2,0,0.3,0.3,0.5c0.5,0.3,0.7,0.3,0.7,0.5
			v1.5c0,0.2-0.2,0.4-0.4,0.4h-8.8c-1,0-2,0-3-0.1c-0.7-0.1-1.2-0.2-1.5-0.5c-0.3-0.3-0.5-0.7-0.5-1.1V40.2z M116.2,49.2
			c0,0.4,0.2,0.5,0.4,0.5c1.1,0.1,1.3,0.1,2.4,0.1h2.5c0.3,0,0.6,0,1.2,0c0.2,0,0.4-0.1,0.4-0.5v-7.4c0-0.3-0.2-0.5-0.4-0.5
			c-0.4,0-0.8,0-1.2,0h-2.5c-1.1,0-1.3,0-2.4,0.1c-0.2,0-0.4,0.2-0.4,0.5V49.2z"/>
		<path class="st7" d="M144.5,52.1c0,0.4-0.2,0.7-0.7,0.7h-11.1c-0.4,0-0.7-0.3-0.7-0.7v-1.5c0-0.4,0.3-0.7,0.7-0.7h3.5
			c0.1,0,0.3,0,0.3-0.1c0.1-0.1,0.1-0.2,0.1-0.4v-7.6c0-0.1,0-0.3-0.1-0.4c-0.1-0.1-0.2-0.1-0.3-0.1h-3.1c-0.4,0-0.7-0.3-0.7-0.7
			v-1.5c0-0.4,0.3-0.7,0.7-0.7h6c0.4,0,0.7,0.3,0.7,0.7v10.2c0,0.1,0,0.3,0.1,0.4c0.1,0.1,0.2,0.1,0.3,0.1h3.5
			c0.4,0,0.7,0.3,0.7,0.7V52.1z M137.8,36.8c-0.9,0-2.7,0-2.7-1.4v-1.8c0-1.4,1.7-1.4,2.7-1.4s2.7,0,2.7,1.4v1.8
			C140.5,36.8,138.8,36.8,137.8,36.8z"/>
		<path class="st7" d="M162.9,57c0,0.5-0.1,0.9-0.5,1.2c-0.3,0.3-0.8,0.5-1.5,0.5c-1,0.1-2,0.1-3,0.1h-6.1c-0.5,0-0.7-0.3-0.7-0.7
			v-1.4c0-0.5,0.3-0.7,0.7-0.7h4.9c1.2,0,1.6,0,2.6-0.1c0.3,0,0.5-0.1,0.5-0.6v-2c0-0.1,0-0.3-0.1-0.4c-0.1-0.1-0.2-0.1-0.3-0.1
			h-4.6c-1,0-2,0-3-0.1c-0.7-0.1-1.2-0.2-1.5-0.5c-0.3-0.3-0.5-0.7-0.5-1.1V40.2c0-0.4,0.2-0.8,0.5-1.1s0.8-0.5,1.5-0.5
			c1-0.1,2-0.1,3-0.1h3.3c1,0,2,0,3,0.1c0.7,0.1,1.2,0.2,1.5,0.5s0.5,0.7,0.5,1.1V57z M152.9,49.3c0,0.3,0.2,0.4,0.4,0.5
			c1.1,0.1,1.3,0.1,2.4,0.1h2.5c0.4,0,0.8,0,1.2,0c0.2,0,0.4-0.2,0.4-0.5v-7.4c0-0.4-0.2-0.5-0.4-0.5c-0.6,0-0.9,0-1.2,0h-2.5
			c-1.1,0-1.3,0-2.4,0.1c-0.2,0-0.4,0.1-0.4,0.5V49.3z"/>
		<path class="st7" d="M181.3,52.1c0,0.4-0.2,0.7-0.7,0.7h-11.1c-0.4,0-0.7-0.3-0.7-0.7v-1.5c0-0.4,0.3-0.7,0.7-0.7h3.5
			c0.1,0,0.3,0,0.3-0.1c0.1-0.1,0.1-0.2,0.1-0.4v-7.6c0-0.1,0-0.3-0.1-0.4c-0.1-0.1-0.2-0.1-0.3-0.1h-3.1c-0.4,0-0.7-0.3-0.7-0.7
			v-1.5c0-0.4,0.3-0.7,0.7-0.7h6c0.4,0,0.7,0.3,0.7,0.7v10.2c0,0.1,0,0.3,0.1,0.4c0.1,0.1,0.2,0.1,0.3,0.1h3.5
			c0.4,0,0.7,0.3,0.7,0.7V52.1z M174.6,36.8c-0.9,0-2.7,0-2.7-1.4v-1.8c0-1.4,1.7-1.4,2.7-1.4s2.7,0,2.7,1.4v1.8
			C177.3,36.8,175.6,36.8,174.6,36.8z"/>
		<path class="st7" d="M198.5,50.9c0,0.7-0.2,1.1-0.5,1.3c-0.3,0.3-0.8,0.4-1.4,0.5c-0.6,0.1-1.7,0.1-2.4,0.1c-0.6,0-2.2,0-2.9-0.1
			c-0.7-0.1-1.2-0.2-1.5-0.5c-0.3-0.3-0.4-0.6-0.4-1.2v-9.2c0-0.3-0.2-0.5-0.5-0.5h-2.1c-0.3,0-0.7-0.3-0.7-0.6v-1.6
			c0-0.4,0.3-0.7,0.7-0.7h2.1c0.3,0,0.5-0.2,0.5-0.5v-5.1c0-0.4,0.3-0.7,0.6-0.7h1.8c0.3,0,0.6,0.3,0.6,0.7V38
			c0,0.3,0.2,0.5,0.5,0.5h4.4c0.4,0,0.7,0.3,0.7,0.7v1.6c0,0.3-0.3,0.6-0.7,0.6H193c-0.3,0-0.5,0.1-0.5,0.5v7.6
			c0,0.5,0.2,0.6,0.5,0.7c0.2,0.1,0.6,0.1,1,0.1c0.4,0,0.9,0,1-0.1c0.3,0,0.4-0.2,0.5-0.6l0.4-1.8c0.1-0.3,0.1-0.5,0.5-0.5h1.6
			c0.3,0,0.5,0.2,0.5,0.5V50.9z"/>
		<path class="st7" d="M218.6,52.3c0,0.3-0.2,0.5-0.4,0.5h-8.4c-1,0-2,0-3-0.1c-0.7-0.1-1.2-0.2-1.5-0.5s-0.5-0.5-0.5-1.3v-4.6
			c0-0.5,0.2-0.9,0.5-1.1c0.6-0.6,3.6-1,4-1l4.4-0.4c0.5-0.1,0.7-0.3,0.7-0.7v-0.8c0-0.3,0-0.5-0.1-0.6c-0.1-0.2-0.4-0.2-0.8-0.2
			c-0.7,0-1-0.1-1.9-0.1h-0.5c-0.8,0-1.6,0-2.6,0.1c-0.3,0-0.4,0.2-0.5,0.5l-0.5,1.2c-0.1,0.2-0.1,0.4-0.5,0.4h-1.6
			c-0.4,0-0.5-0.1-0.5-0.5v-2.7c0-0.5,0.2-0.9,0.4-1.2c0.3-0.3,0.8-0.5,1.5-0.5c1-0.1,2-0.1,3-0.1h2.7c1,0,2,0,3,0.1
			c0.7,0.1,1.2,0.2,1.5,0.6c0.3,0.3,0.4,0.7,0.4,1.3v9.2c0,0.3,0,0.4,0.3,0.6c0.5,0.3,0.7,0.3,0.7,0.6V52.3z M214.5,46.8
			c0-0.2-0.1-0.4-0.4-0.4c-0.3,0-0.6,0-0.9,0.1l-4.6,0.6c-0.4,0.1-0.6,0.2-0.6,0.7v1.4c0,0.6,0.1,0.6,0.7,0.7c1,0.1,1.4,0.1,2.5,0.1
			h0.9c0.4,0,1.4,0,1.9,0c0.4,0,0.5-0.2,0.5-0.5V46.8z"/>
		<path class="st7" d="M236.5,52.1c0,0.4-0.3,0.7-0.7,0.7h-11.1c-0.4,0-0.7-0.3-0.7-0.7v-1.5c0-0.4,0.3-0.7,0.7-0.7h3.5
			c0.1,0,0.3,0,0.3-0.1c0.1-0.1,0.1-0.2,0.1-0.4V35.9c0-0.1,0-0.3-0.1-0.4c-0.1-0.1-0.2-0.1-0.3-0.1h-3.1c-0.4,0-0.7-0.3-0.7-0.6
			v-1.6c0-0.4,0.3-0.7,0.7-0.7h6c0.4,0,0.7,0.3,0.7,0.7v16.1c0,0.1,0,0.3,0.1,0.4c0.1,0.1,0.2,0.1,0.3,0.1h3.5
			c0.4,0,0.7,0.3,0.7,0.7V52.1z"/>
		<path class="st7" d="M273,51c0,0.5-0.2,0.9-0.5,1.2s-0.8,0.5-1.5,0.5c-1,0.1-2,0.1-3,0.1h-2.7c-1,0-2,0-3-0.1
			c-0.7-0.1-1.2-0.2-1.5-0.5c-0.3-0.3-0.4-0.6-0.4-1.2V40.2c0-0.4,0.2-0.8,0.4-1.1c0.3-0.3,0.8-0.5,1.5-0.5c1-0.1,2-0.1,3-0.1h2.7
			c1,0,2,0,3,0.1c0.7,0.1,1.2,0.2,1.5,0.5s0.5,0.6,0.5,1.2v3.3c0,0.2,0,0.3-0.1,0.3c-0.1,0.1-0.2,0.1-0.3,0.1h-1.7
			c-0.3,0-0.4-0.2-0.5-0.4l-0.5-1.8c-0.1-0.3-0.3-0.4-0.5-0.5c-0.7-0.1-1.4-0.1-2.2-0.1h-0.9c-1.1,0-1.5,0-2.4,0.1
			c-0.3,0-0.4,0.2-0.4,0.5v7.5c0,0.4,0.2,0.5,0.4,0.5c0.7,0.1,1.5,0.1,2.4,0.1h0.9c0.9,0,1.3,0,2.3-0.1c0.2,0,0.4-0.2,0.5-0.5l0.5-2
			c0.1-0.2,0.2-0.2,0.4-0.2h1.7c0.2,0,0.3,0.1,0.4,0.1c0.1,0.1,0.1,0.2,0.1,0.3V51z"/>
		<path class="st7" d="M292,44.3c0,0.1,0,0.2-0.1,0.3c-0.1,0.1-0.2,0.1-0.3,0.1h-1.9c-0.2,0-0.3-0.2-0.4-0.4l-0.5-2.4
			c-0.1-0.3-0.2-0.4-0.5-0.5c-1.1-0.1-1.1-0.1-2.2-0.1h-0.4c-0.4,0-0.5,0.2-0.5,0.5v7.5c0,0.4,0.2,0.5,0.6,0.5h3.4
			c0.5,0,0.7,0.2,0.7,0.7v1.5c0,0.4-0.2,0.7-0.7,0.7H279c-0.5,0-0.7-0.2-0.7-0.7v-1.5c0-0.4,0.3-0.7,0.7-0.7h2.7
			c0.3,0,0.5-0.1,0.5-0.5v-7.5c0-0.3-0.2-0.5-0.5-0.5H279c-0.5,0-0.7-0.2-0.7-0.7v-1.4c0-0.5,0.2-0.7,0.7-0.7h8.2c1,0,2,0,3,0.1
			c0.7,0.1,1.2,0.2,1.6,0.6c0.2,0.3,0.3,0.6,0.3,1.2V44.3z"/>
		<path class="st7" d="M310,52.1c0,0.4-0.2,0.7-0.7,0.7h-11.1c-0.4,0-0.7-0.3-0.7-0.7v-1.5c0-0.4,0.3-0.7,0.7-0.7h3.5
			c0.1,0,0.3,0,0.3-0.1c0.1-0.1,0.1-0.2,0.1-0.4v-7.6c0-0.1,0-0.3-0.1-0.4c-0.1-0.1-0.2-0.1-0.3-0.1h-3.1c-0.4,0-0.7-0.3-0.7-0.7
			v-1.5c0-0.4,0.3-0.7,0.7-0.7h6c0.4,0,0.7,0.3,0.7,0.7v10.2c0,0.1,0,0.3,0.1,0.4c0.1,0.1,0.2,0.1,0.3,0.1h3.5
			c0.4,0,0.7,0.3,0.7,0.7V52.1z M303.4,36.8c-0.9,0-2.7,0-2.7-1.4v-1.8c0-1.4,1.7-1.4,2.7-1.4s2.7,0,2.7,1.4v1.8
			C306.1,36.8,304.3,36.8,303.4,36.8z"/>
		<path class="st7" d="M327.2,50.9c0,0.7-0.2,1.1-0.5,1.3c-0.3,0.3-0.8,0.4-1.4,0.5c-0.6,0.1-1.7,0.1-2.4,0.1c-0.6,0-2.2,0-2.9-0.1
			c-0.7-0.1-1.2-0.2-1.5-0.5c-0.3-0.3-0.4-0.6-0.4-1.2v-9.2c0-0.3-0.2-0.5-0.5-0.5h-2.1c-0.3,0-0.7-0.3-0.7-0.6v-1.6
			c0-0.4,0.3-0.7,0.7-0.7h2.1c0.3,0,0.5-0.2,0.5-0.5v-5.1c0-0.4,0.3-0.7,0.6-0.7h1.8c0.3,0,0.6,0.3,0.6,0.7V38
			c0,0.3,0.2,0.5,0.5,0.5h4.4c0.4,0,0.7,0.3,0.7,0.7v1.6c0,0.3-0.3,0.6-0.7,0.6h-4.5c-0.3,0-0.5,0.1-0.5,0.5v7.6
			c0,0.5,0.2,0.6,0.5,0.7c0.2,0.1,0.6,0.1,1,0.1c0.4,0,0.9,0,1-0.1c0.3,0,0.4-0.2,0.5-0.6l0.4-1.8c0.1-0.3,0.1-0.5,0.5-0.5h1.6
			c0.3,0,0.5,0.2,0.5,0.5V50.9z"/>
		<path class="st7" d="M346.8,52.1c0,0.4-0.2,0.7-0.7,0.7h-11.1c-0.4,0-0.7-0.3-0.7-0.7v-1.5c0-0.4,0.3-0.7,0.7-0.7h3.5
			c0.1,0,0.3,0,0.3-0.1c0.1-0.1,0.1-0.2,0.1-0.4v-7.6c0-0.1,0-0.3-0.1-0.4c-0.1-0.1-0.2-0.1-0.3-0.1h-3.1c-0.4,0-0.7-0.3-0.7-0.7
			v-1.5c0-0.4,0.3-0.7,0.7-0.7h6c0.4,0,0.7,0.3,0.7,0.7v10.2c0,0.1,0,0.3,0.1,0.4c0.1,0.1,0.2,0.1,0.3,0.1h3.5
			c0.4,0,0.7,0.3,0.7,0.7V52.1z M340.1,36.8c-0.9,0-2.7,0-2.7-1.4v-1.8c0-1.4,1.7-1.4,2.7-1.4s2.7,0,2.7,1.4v1.8
			C342.8,36.8,341.1,36.8,340.1,36.8z"/>
		<path class="st7" d="M364.9,51c0,0.5-0.2,0.9-0.5,1.2s-0.8,0.5-1.5,0.5c-1,0.1-2,0.1-3,0.1h-2.7c-1,0-2,0-3-0.1
			c-0.7-0.1-1.2-0.2-1.5-0.5c-0.3-0.3-0.4-0.6-0.4-1.2V40.2c0-0.4,0.2-0.8,0.4-1.1c0.3-0.3,0.8-0.5,1.5-0.5c1-0.1,2-0.1,3-0.1h2.7
			c1,0,2,0,3,0.1c0.7,0.1,1.2,0.2,1.5,0.5s0.5,0.6,0.5,1.2v3.3c0,0.2,0,0.3-0.1,0.3c-0.1,0.1-0.2,0.1-0.3,0.1h-1.7
			c-0.3,0-0.4-0.2-0.5-0.4l-0.5-1.8c-0.1-0.3-0.3-0.4-0.5-0.5c-0.7-0.1-1.4-0.1-2.2-0.1h-0.9c-1.1,0-1.5,0-2.4,0.1
			c-0.3,0-0.4,0.2-0.4,0.5v7.5c0,0.4,0.2,0.5,0.4,0.5c0.7,0.1,1.5,0.1,2.4,0.1h0.9c0.9,0,1.3,0,2.3-0.1c0.2,0,0.4-0.2,0.5-0.5l0.5-2
			c0.1-0.2,0.2-0.2,0.4-0.2h1.7c0.2,0,0.3,0.1,0.4,0.1c0.1,0.1,0.1,0.2,0.1,0.3V51z"/>
		<path class="st7" d="M383.6,52.1c0,0.4-0.2,0.7-0.7,0.7h-11.1c-0.4,0-0.7-0.3-0.7-0.7v-1.5c0-0.4,0.3-0.7,0.7-0.7h3.5
			c0.1,0,0.3,0,0.3-0.1c0.1-0.1,0.1-0.2,0.1-0.4v-7.6c0-0.1,0-0.3-0.1-0.4c-0.1-0.1-0.2-0.1-0.3-0.1h-3.1c-0.4,0-0.7-0.3-0.7-0.7
			v-1.5c0-0.4,0.3-0.7,0.7-0.7h6c0.4,0,0.7,0.3,0.7,0.7v10.2c0,0.1,0,0.3,0.1,0.4c0.1,0.1,0.2,0.1,0.3,0.1h3.5
			c0.4,0,0.7,0.3,0.7,0.7V52.1z M376.9,36.8c-0.9,0-2.7,0-2.7-1.4v-1.8c0-1.4,1.7-1.4,2.7-1.4s2.7,0,2.7,1.4v1.8
			C379.6,36.8,377.9,36.8,376.9,36.8z"/>
		<path class="st7" d="M401.7,42.9c0,0.5-0.3,0.5-0.7,0.5h-1.1c-0.3,0-0.5-0.1-0.6-0.4l-0.4-1.1c-0.1-0.3-0.3-0.5-0.6-0.6
			c-0.9-0.1-1.4-0.1-2.1-0.1H395c-0.9,0-1.5,0-2.3,0.1c-0.4,0-0.5,0.2-0.5,0.5v1.6c0,0.3,0.1,0.5,0.5,0.5c0.8,0.1,1.2,0.1,2.3,0.1
			h1.8c1,0,2,0,3,0.1c0.7,0.1,1.2,0.2,1.5,0.5s0.5,0.6,0.5,1.2v5.2c0,0.4-0.2,0.8-0.5,1.1s-0.8,0.5-1.5,0.5c-1,0.1-2,0.1-3,0.1h-2.6
			c-1,0-2,0-3-0.1c-0.7-0.1-1.2-0.2-1.5-0.5s-0.5-0.6-0.5-1.2v-3c0-0.3,0.1-0.4,0.4-0.4h1.5c0.3,0,0.4,0.1,0.5,0.4l0.5,1.5
			c0.1,0.3,0.1,0.4,0.5,0.5c0.7,0.1,1.1,0.1,2.2,0.1h1.1c1.1,0,1.4,0,2.4-0.1c0.2,0,0.4-0.2,0.4-0.5v-2c0-0.3-0.2-0.5-0.4-0.5
			c-0.9-0.1-1.3-0.1-2.4-0.1h-1.8c-1,0-2.1,0-3-0.1c-0.5,0-1-0.2-1.3-0.5c-0.3-0.3-0.5-0.7-0.5-1.2v-4.9c0-0.4,0.2-0.8,0.5-1.1
			s0.8-0.5,1.5-0.5c1-0.1,2-0.1,3-0.1h2.6c1,0,2,0,3,0.1c0.7,0.1,1.2,0.2,1.5,0.5s0.5,0.5,0.5,1.3V42.9z"/>
		<path class="st7" d="M421.4,52.4c0,0.4-0.3,0.7-0.7,0.7h-1.5c-0.4,0-0.7-0.3-0.7-0.7V41.9c0-0.4-0.2-0.5-0.5-0.6
			c-0.4,0-0.5,0-0.9,0c-0.3,0-0.5,0-1,0c-0.4,0-0.5,0.2-0.5,0.6v10.4c0,0.4-0.3,0.7-0.7,0.7h-1.5c-0.4,0-0.7-0.3-0.7-0.7V41.9
			c0-0.3-0.1-0.5-0.5-0.5c-0.5,0-0.7,0-1,0c-0.2,0-0.5,0-1,0c-0.2,0-0.4,0.2-0.4,0.5v10.5c0,0.4-0.3,0.7-0.7,0.7h-1.5
			c-0.4,0-0.7-0.3-0.7-0.7V41.5c0-0.2,0-0.3-0.3-0.5l-0.2-0.1c-0.4-0.2-0.5-0.2-0.5-0.5v-1.6c0-0.2,0.1-0.4,0.4-0.4h4.6
			c1,0,2.4,0,2.8,0.5c0.2,0.2,0.3,0.4,0.4,0.6c0.1-0.2,0.2-0.5,0.4-0.6c0.5-0.5,1.8-0.5,2.8-0.5h1c0.9,0,1.9,0,2.5,0.6
			c0.3,0.3,0.5,0.7,0.5,1.1V52.4z"/>
	</g>
</g>
</svg>
