<svg enable-background="new 0 0 500.7 88.4" viewBox="0 0 500.7 88.4" xmlns="http://www.w3.org/2000/svg"><path d="m8.4 79.8c20 0 36.3-16.2 36.3-36.3s-16.3-36.3-36.3-36.3" fill="#b150ff"/><path d="m8.4 68.8c14 0 25.3-11.3 25.3-25.3s-11.3-25.4-25.3-25.4" fill="#fc980f"/><path d="m8.4 57.8c7.9 0 14.3-6.4 14.3-14.3s-6.4-14.3-14.3-14.3" fill="#b150ff"/><g stroke-miterlimit="10" stroke-width="1.5"><path d="m8.4 47.1c2 0 3.6-1.6 3.6-3.6s-1.6-3.6-3.6-3.6" fill="#fff" stroke="#fff"/><g fill="none" stroke="#90d24a"><path d="m8.4 47.1c2 0 3.6-1.6 3.6-3.6s-1.6-3.6-3.6-3.6"/><path d="m8.4 65.2c12 0 21.7-9.7 21.7-21.7s-9.7-21.7-21.7-21.7"/><path d="m8.4 61.6c10 0 18.1-8.1 18.1-18.1s-8.1-18.1-18.1-18.1"/><path d="m8.4 58c8 0 14.5-6.5 14.5-14.5s-6.5-14.5-14.5-14.5"/><path d="m8.4 54.3c6 0 10.9-4.9 10.9-10.9s-4.9-10.8-10.9-10.8"/><path d="m8.4 50.7c4 0 7.2-3.2 7.2-7.2s-3.2-7.2-7.2-7.2"/><path d="m8.4 76.1c18 0 32.6-14.6 32.6-32.6s-14.6-32.6-32.6-32.6"/><path d="m8.4 72.4c16 0 29-13 29-29s-13-29-29-29"/><path d="m8.4 68.8c14 0 25.3-11.3 25.3-25.3s-11.3-25.4-25.3-25.4"/><path d="m8.4 79.7c20 0 36.2-16.2 36.2-36.2s-16.2-36.2-36.2-36.2"/></g></g><path d="m82.3 7.3c-20 0-36.2 16.2-36.2 36.2s16.2 36.2 36.2 36.2" fill="#90d24a"/><path d="m82.3 18.1c-14 0-25.3 11.4-25.3 25.3s11.4 25.3 25.3 25.3" fill="#fc980f"/><path d="m82.3 29.2c-7.9 0-14.3 6.4-14.3 14.3s6.4 14.3 14.3 14.3" fill="#90d24a"/><g stroke-miterlimit="10" stroke-width="1.5"><path d="m82.3 39.9c-2 0-3.6 1.6-3.6 3.6s1.6 3.6 3.6 3.6" fill="#fff" stroke="#fff"/><g fill="none" stroke="#b150ff"><path d="m82.3 39.9c-2 0-3.6 1.6-3.6 3.6s1.6 3.6 3.6 3.6"/><path d="m82.3 21.8c-12 0-21.7 9.7-21.7 21.7s9.7 21.7 21.7 21.7"/><path d="m82.3 25.4c-10 0-18.1 8.1-18.1 18.1s8.1 18.1 18.1 18.1"/><path d="m82.3 29c-8 0-14.5 6.5-14.5 14.5s6.5 14.5 14.5 14.5"/><path d="m82.3 32.6c-6 0-10.9 4.9-10.9 10.9s4.9 10.9 10.9 10.9"/><path d="m82.3 36.2c-4 0-7.2 3.2-7.2 7.2s3.2 7.2 7.2 7.2"/><path d="m82.3 10.9c-18 0-32.6 14.6-32.6 32.6s14.6 32.6 32.6 32.6"/><path d="m82.3 14.5c-16 0-29 13-29 29s13 29 29 29"/><path d="m82.3 18.1c-14 0-25.3 11.4-25.3 25.3s11.4 25.3 25.3 25.3"/><path d="m82.3 7.3c-20 0-36.2 16.2-36.2 36.2s16.2 36.2 36.2 36.2"/></g></g><g enable-background="new" fill="#662d91"><path d="m113.2 40.2c0-.4.2-.8.5-1.1s.8-.5 1.5-.5c1-.1 2-.1 3-.1h4.6c.1 0 .3 0 .3-.1.1-.1.1-.2.1-.4v-5c0-.4.3-.7.7-.7h1.7c.4 0 .7.3.7.7v16.9c0 .2 0 .3.3.5.5.3.7.3.7.5v1.5c0 .2-.2.4-.4.4h-8.8c-1 0-2 0-3-.1-.7-.1-1.2-.2-1.5-.5s-.5-.7-.5-1.1v-10.9zm3 9c0 .4.2.5.4.5 1.1.1 1.3.1 2.4.1h2.5 1.2c.2 0 .4-.1.4-.5v-7.4c0-.3-.2-.5-.4-.5-.4 0-.8 0-1.2 0h-2.5c-1.1 0-1.3 0-2.4.1-.2 0-.4.2-.4.5z"/><path d="m144.5 52.1c0 .4-.2.7-.7.7h-11.1c-.4 0-.7-.3-.7-.7v-1.5c0-.4.3-.7.7-.7h3.5c.1 0 .3 0 .3-.1.1-.1.1-.2.1-.4v-7.6c0-.1 0-.3-.1-.4s-.2-.1-.3-.1h-3.1c-.4 0-.7-.3-.7-.7v-1.5c0-.4.3-.7.7-.7h6c.4 0 .7.3.7.7v10.2c0 .1 0 .3.1.4s.2.1.3.1h3.5c.4 0 .7.3.7.7v1.6zm-6.7-15.3c-.9 0-2.7 0-2.7-1.4v-1.8c0-1.4 1.7-1.4 2.7-1.4s2.7 0 2.7 1.4v1.8c0 1.4-1.7 1.4-2.7 1.4z"/><path d="m162.9 57c0 .5-.1.9-.5 1.2-.3.3-.8.5-1.5.5-1 .1-2 .1-3 .1h-6.1c-.5 0-.7-.3-.7-.7v-1.4c0-.5.3-.7.7-.7h4.9c1.2 0 1.6 0 2.6-.1.3 0 .5-.1.5-.6v-2c0-.1 0-.3-.1-.4s-.2-.1-.3-.1h-4.6c-1 0-2 0-3-.1-.7-.1-1.2-.2-1.5-.5s-.5-.7-.5-1.1v-10.9c0-.4.2-.8.5-1.1s.8-.5 1.5-.5c1-.1 2-.1 3-.1h3.3c1 0 2 0 3 .1.7.1 1.2.2 1.5.5s.5.7.5 1.1v16.8zm-10-7.7c0 .3.2.4.4.5 1.1.1 1.3.1 2.4.1h2.5 1.2c.2 0 .4-.2.4-.5v-7.4c0-.4-.2-.5-.4-.5-.6 0-.9 0-1.2 0h-2.5c-1.1 0-1.3 0-2.4.1-.2 0-.4.1-.4.5z"/><path d="m181.3 52.1c0 .4-.2.7-.7.7h-11.1c-.4 0-.7-.3-.7-.7v-1.5c0-.4.3-.7.7-.7h3.5c.1 0 .3 0 .3-.1.1-.1.1-.2.1-.4v-7.6c0-.1 0-.3-.1-.4s-.2-.1-.3-.1h-3.1c-.4 0-.7-.3-.7-.7v-1.5c0-.4.3-.7.7-.7h6c.4 0 .7.3.7.7v10.2c0 .1 0 .3.1.4s.2.1.3.1h3.5c.4 0 .7.3.7.7v1.6zm-6.7-15.3c-.9 0-2.7 0-2.7-1.4v-1.8c0-1.4 1.7-1.4 2.7-1.4s2.7 0 2.7 1.4v1.8c0 1.4-1.7 1.4-2.7 1.4z"/><path d="m198.5 50.9c0 .7-.2 1.1-.5 1.3-.3.3-.8.4-1.4.5s-1.7.1-2.4.1c-.6 0-2.2 0-2.9-.1s-1.2-.2-1.5-.5-.4-.6-.4-1.2v-9.2c0-.3-.2-.5-.5-.5h-2.1c-.3 0-.7-.3-.7-.6v-1.6c0-.4.3-.7.7-.7h2.1c.3 0 .5-.2.5-.5v-5.1c0-.4.3-.7.6-.7h1.8c.3 0 .6.3.6.7v5.2c0 .3.2.5.5.5h4.4c.4 0 .7.3.7.7v1.6c0 .3-.3.6-.7.6h-4.3c-.3 0-.5.1-.5.5v7.6c0 .5.2.6.5.7.2.1.6.1 1 .1s.9 0 1-.1c.3 0 .4-.2.5-.6l.4-1.8c.1-.3.1-.5.5-.5h1.6c.3 0 .5.2.5.5z"/><path d="m218.6 52.3c0 .3-.2.5-.4.5h-8.4c-1 0-2 0-3-.1-.7-.1-1.2-.2-1.5-.5s-.5-.5-.5-1.3v-4.6c0-.5.2-.9.5-1.1.6-.6 3.6-1 4-1l4.4-.4c.5-.1.7-.3.7-.7v-.8c0-.3 0-.5-.1-.6-.1-.2-.4-.2-.8-.2-.7 0-1-.1-1.9-.1h-.5c-.8 0-1.6 0-2.6.1-.3 0-.4.2-.5.5l-.5 1.2c-.1.2-.1.4-.5.4h-1.6c-.4 0-.5-.1-.5-.5v-2.7c0-.5.2-.9.4-1.2.3-.3.8-.5 1.5-.5 1-.1 2-.1 3-.1h2.7c1 0 2 0 3 .1.7.1 1.2.2 1.5.6.3.3.4.7.4 1.3v9.2c0 .3 0 .4.3.6.5.3.7.3.7.6v1.3zm-4.1-5.5c0-.2-.1-.4-.4-.4s-.6 0-.9.1l-4.6.6c-.4.1-.6.2-.6.7v1.4c0 .6.1.6.7.7 1 .1 1.4.1 2.5.1h.9 1.9c.4 0 .5-.2.5-.5z"/><path d="m236.5 52.1c0 .4-.3.7-.7.7h-11.1c-.4 0-.7-.3-.7-.7v-1.5c0-.4.3-.7.7-.7h3.5c.1 0 .3 0 .3-.1.1-.1.1-.2.1-.4v-13.5c0-.1 0-.3-.1-.4s-.2-.1-.3-.1h-3.1c-.4 0-.7-.3-.7-.6v-1.6c0-.4.3-.7.7-.7h6c.4 0 .7.3.7.7v16.1c0 .1 0 .3.1.4s.2.1.3.1h3.5c.4 0 .7.3.7.7v1.6z"/><path d="m273 51c0 .5-.2.9-.5 1.2s-.8.5-1.5.5c-1 .1-2 .1-3 .1h-2.7c-1 0-2 0-3-.1-.7-.1-1.2-.2-1.5-.5s-.4-.6-.4-1.2v-10.8c0-.4.2-.8.4-1.1.3-.3.8-.5 1.5-.5 1-.1 2-.1 3-.1h2.7c1 0 2 0 3 .1.7.1 1.2.2 1.5.5s.5.6.5 1.2v3.3c0 .2 0 .3-.1.3-.1.1-.2.1-.3.1h-1.7c-.3 0-.4-.2-.5-.4l-.5-1.8c-.1-.3-.3-.4-.5-.5-.7-.1-1.4-.1-2.2-.1h-.9c-1.1 0-1.5 0-2.4.1-.3 0-.4.2-.4.5v7.5c0 .4.2.5.4.5.7.1 1.5.1 2.4.1h.9c.9 0 1.3 0 2.3-.1.2 0 .4-.2.5-.5l.5-2c.1-.2.2-.2.4-.2h1.7c.2 0 .3.1.4.1.1.1.1.2.1.3v3.5z"/><path d="m292 44.3c0 .1 0 .2-.1.3s-.2.1-.3.1h-1.9c-.2 0-.3-.2-.4-.4l-.5-2.4c-.1-.3-.2-.4-.5-.5-1.1-.1-1.1-.1-2.2-.1h-.4c-.4 0-.5.2-.5.5v7.5c0 .4.2.5.6.5h3.4c.5 0 .7.2.7.7v1.5c0 .4-.2.7-.7.7h-10.2c-.5 0-.7-.2-.7-.7v-1.5c0-.4.3-.7.7-.7h2.7c.3 0 .5-.1.5-.5v-7.5c0-.3-.2-.5-.5-.5h-2.7c-.5 0-.7-.2-.7-.7v-1.4c0-.5.2-.7.7-.7h8.2c1 0 2 0 3 .1.7.1 1.2.2 1.6.6.2.3.3.6.3 1.2v3.9z"/><path d="m310 52.1c0 .4-.2.7-.7.7h-11.1c-.4 0-.7-.3-.7-.7v-1.5c0-.4.3-.7.7-.7h3.5c.1 0 .3 0 .3-.1.1-.1.1-.2.1-.4v-7.6c0-.1 0-.3-.1-.4s-.2-.1-.3-.1h-3.1c-.4 0-.7-.3-.7-.7v-1.5c0-.4.3-.7.7-.7h6c.4 0 .7.3.7.7v10.2c0 .1 0 .3.1.4s.2.1.3.1h3.5c.4 0 .7.3.7.7v1.6zm-6.6-15.3c-.9 0-2.7 0-2.7-1.4v-1.8c0-1.4 1.7-1.4 2.7-1.4s2.7 0 2.7 1.4v1.8c0 1.4-1.8 1.4-2.7 1.4z"/><path d="m327.2 50.9c0 .7-.2 1.1-.5 1.3-.3.3-.8.4-1.4.5s-1.7.1-2.4.1c-.6 0-2.2 0-2.9-.1s-1.2-.2-1.5-.5-.4-.6-.4-1.2v-9.2c0-.3-.2-.5-.5-.5h-2.1c-.3 0-.7-.3-.7-.6v-1.6c0-.4.3-.7.7-.7h2.1c.3 0 .5-.2.5-.5v-5.1c0-.4.3-.7.6-.7h1.8c.3 0 .6.3.6.7v5.2c0 .3.2.5.5.5h4.4c.4 0 .7.3.7.7v1.6c0 .3-.3.6-.7.6h-4.5c-.3 0-.5.1-.5.5v7.6c0 .5.2.6.5.7.2.1.6.1 1 .1s.9 0 1-.1c.3 0 .4-.2.5-.6l.4-1.8c.1-.3.1-.5.5-.5h1.6c.3 0 .5.2.5.5v3.1z"/><path d="m346.8 52.1c0 .4-.2.7-.7.7h-11.1c-.4 0-.7-.3-.7-.7v-1.5c0-.4.3-.7.7-.7h3.5c.1 0 .3 0 .3-.1.1-.1.1-.2.1-.4v-7.6c0-.1 0-.3-.1-.4s-.2-.1-.3-.1h-3.1c-.4 0-.7-.3-.7-.7v-1.5c0-.4.3-.7.7-.7h6c.4 0 .7.3.7.7v10.2c0 .1 0 .3.1.4s.2.1.3.1h3.5c.4 0 .7.3.7.7v1.6zm-6.7-15.3c-.9 0-2.7 0-2.7-1.4v-1.8c0-1.4 1.7-1.4 2.7-1.4s2.7 0 2.7 1.4v1.8c0 1.4-1.7 1.4-2.7 1.4z"/><path d="m364.9 51c0 .5-.2.9-.5 1.2s-.8.5-1.5.5c-1 .1-2 .1-3 .1h-2.7c-1 0-2 0-3-.1-.7-.1-1.2-.2-1.5-.5s-.4-.6-.4-1.2v-10.8c0-.4.2-.8.4-1.1.3-.3.8-.5 1.5-.5 1-.1 2-.1 3-.1h2.7c1 0 2 0 3 .1.7.1 1.2.2 1.5.5s.5.6.5 1.2v3.3c0 .2 0 .3-.1.3-.1.1-.2.1-.3.1h-1.7c-.3 0-.4-.2-.5-.4l-.5-1.8c-.1-.3-.3-.4-.5-.5-.7-.1-1.4-.1-2.2-.1h-.9c-1.1 0-1.5 0-2.4.1-.3 0-.4.2-.4.5v7.5c0 .4.2.5.4.5.7.1 1.5.1 2.4.1h.9c.9 0 1.3 0 2.3-.1.2 0 .4-.2.5-.5l.5-2c.1-.2.2-.2.4-.2h1.7c.2 0 .3.1.4.1.1.1.1.2.1.3v3.5z"/><path d="m383.6 52.1c0 .4-.2.7-.7.7h-11.1c-.4 0-.7-.3-.7-.7v-1.5c0-.4.3-.7.7-.7h3.5c.1 0 .3 0 .3-.1.1-.1.1-.2.1-.4v-7.6c0-.1 0-.3-.1-.4s-.2-.1-.3-.1h-3.1c-.4 0-.7-.3-.7-.7v-1.5c0-.4.3-.7.7-.7h6c.4 0 .7.3.7.7v10.2c0 .1 0 .3.1.4s.2.1.3.1h3.5c.4 0 .7.3.7.7v1.6zm-6.7-15.3c-.9 0-2.7 0-2.7-1.4v-1.8c0-1.4 1.7-1.4 2.7-1.4s2.7 0 2.7 1.4v1.8c0 1.4-1.7 1.4-2.7 1.4z"/><path d="m401.7 42.9c0 .5-.3.5-.7.5h-1.1c-.3 0-.5-.1-.6-.4l-.4-1.1c-.1-.3-.3-.5-.6-.6-.9-.1-1.4-.1-2.1-.1h-1.2c-.9 0-1.5 0-2.3.1-.4 0-.5.2-.5.5v1.6c0 .3.1.5.5.5.8.1 1.2.1 2.3.1h1.8c1 0 2 0 3 .1.7.1 1.2.2 1.5.5s.5.6.5 1.2v5.2c0 .4-.2.8-.5 1.1s-.8.5-1.5.5c-1 .1-2 .1-3 .1h-2.6c-1 0-2 0-3-.1-.7-.1-1.2-.2-1.5-.5s-.5-.6-.5-1.2v-3c0-.3.1-.4.4-.4h1.5c.3 0 .4.1.5.4l.5 1.5c.1.3.1.4.5.5.7.1 1.1.1 2.2.1h1.1c1.1 0 1.4 0 2.4-.1.2 0 .4-.2.4-.5v-2c0-.3-.2-.5-.4-.5-.9-.1-1.3-.1-2.4-.1h-1.8c-1 0-2.1 0-3-.1-.5 0-1-.2-1.3-.5s-.5-.7-.5-1.2v-4.9c0-.4.2-.8.5-1.1s.8-.5 1.5-.5c1-.1 2-.1 3-.1h2.6c1 0 2 0 3 .1.7.1 1.2.2 1.5.5s.5.5.5 1.3v2.6z"/><path d="m421.4 52.4c0 .4-.3.7-.7.7h-1.5c-.4 0-.7-.3-.7-.7v-10.5c0-.4-.2-.5-.5-.6-.4 0-.5 0-.9 0-.3 0-.5 0-1 0-.4 0-.5.2-.5.6v10.4c0 .4-.3.7-.7.7h-1.5c-.4 0-.7-.3-.7-.7v-10.4c0-.3-.1-.5-.5-.5-.5 0-.7 0-1 0-.2 0-.5 0-1 0-.2 0-.4.2-.4.5v10.5c0 .4-.3.7-.7.7h-1.5c-.4 0-.7-.3-.7-.7v-10.9c0-.2 0-.3-.3-.5l-.2-.1c-.4-.2-.5-.2-.5-.5v-1.6c0-.2.1-.4.4-.4h4.6c1 0 2.4 0 2.8.5.2.2.3.4.4.6.1-.2.2-.5.4-.6.5-.5 1.8-.5 2.8-.5h1c.9 0 1.9 0 2.5.6.3.3.5.7.5 1.1v12.3z"/></g></svg>