<svg enable-background="new 0 0 148.05 147.81" viewBox="0 0 148.05 147.81" xmlns="http://www.w3.org/2000/svg"><path d="m1.98 34.25v8.39l51.44 21.31z" fill="#b150ff"/><path d="m1.98 45.89v7.35l50.28 13.48z" fill="#b150ff"/><path d="m1.98 66.12v6.47h49.12z" fill="#b150ff"/><path d="m30.68 2.09h-10.05l40.61 52.93z" fill="#b150ff"/><path d="m16.84 2.09h-12.74l54.76 54.76z" fill="#b150ff"/><path d="m1.98 20.73v10.06l52.93 30.56z" fill="#b150ff"/><path d="m1.98 56.35v6.75l49.51 6.51z" fill="#b150ff"/><path d="m1.98 117.39v10.06l52.94-40.62z" fill="#b150ff"/><path d="m1.98 131.23v12.74l54.76-54.76z" fill="#b150ff"/><path d="m1.98 75.59v6.47l49.12-6.47z" fill="#b150ff"/><path d="m4.1 146.09h12.75l42.01-54.76z" fill="#b150ff"/><path d="m1.98 105.54v8.39l51.44-29.7z" fill="#b150ff"/><path d="m1.98 85.08v6.75l49.51-13.27z" fill="#b150ff"/><path d="m42.54 2.09h-8.39l29.69 51.43z" fill="#b150ff"/><path d="m145.98 30.79v-10.06l-52.93 40.62z" fill="#b150ff"/><path d="m20.63 146.09h10.05l30.56-52.93z" fill="#b150ff"/><path d="m143.86 2.09h-12.74l-42.01 54.75z" fill="#b150ff"/><path d="m145.98 16.95v-12.74l-54.76 54.76z" fill="#b150ff"/><path d="m145.98 72.59v-6.47l-49.11 6.47z" fill="#b150ff"/><path d="m145.98 42.64v-8.39l-51.43 29.7z" fill="#b150ff"/><path d="m145.98 63.1v-6.75l-49.5 13.26z" fill="#b150ff"/><path d="m62.99 2.09h-6.75l13.27 49.51z" fill="#b150ff"/><path d="m72.48 2.09h-6.46l6.46 49.11z" fill="#b150ff"/><path d="m53.14 2.09h-7.36l20.83 50.28z" fill="#b150ff"/><path d="m145.98 53.24v-7.35l-50.28 20.83z" fill="#b150ff"/><path d="m66.02 146.09h6.46v-49.11z" fill="#b150ff"/><path d="m117.28 146.09h10.06l-40.62-52.93z" fill="#b150ff"/><path d="m94.83 146.09h7.35l-20.82-50.28z" fill="#b150ff"/><path d="m84.98 146.09h6.74l-13.26-49.51z" fill="#b150ff"/><path d="m131.12 146.09h12.74l-54.75-54.76z" fill="#b150ff"/><path d="m75.48 146.09h6.47l-6.47-49.11z" fill="#b150ff"/><path d="m105.43 146.09h8.39l-29.69-51.43z" fill="#b150ff"/><path d="m145.98 91.83v-6.75l-49.5-6.52z" fill="#b150ff"/><path d="m96.87 75.59 49.11 6.47v-6.47z" fill="#b150ff"/><path d="m145.98 127.45v-10.06l-52.93-30.56z" fill="#b150ff"/><path d="m145.98 143.97v-12.74l-54.75-42.02z" fill="#b150ff"/><path d="m145.98 113.93v-8.39l-51.43-21.31z" fill="#b150ff"/><path d="m145.98 102.29v-7.36l-50.28-13.47z" fill="#b150ff"/><path d="m34.15 146.09h8.39l21.3-51.43z" fill="#b150ff"/><path d="m45.78 146.09h7.36l13.47-50.28z" fill="#b150ff"/><path d="m56.24 146.09h6.75l6.52-49.51z" fill="#b150ff"/><path d="m91.72 2.09h-6.74l-6.52 49.51z" fill="#b150ff"/><path d="m81.95 2.09h-6.47v49.11z" fill="#b150ff"/><path d="m102.18 2.09h-7.35l-13.48 50.28z" fill="#b150ff"/><path d="m113.82 2.09h-8.39l-21.3 51.43z" fill="#b150ff"/><path d="m127.34 2.09h-10.06l-30.56 52.93z" fill="#b150ff"/><path d="m1.98 94.93v7.36l50.29-20.83z" fill="#b150ff"/><path d="m1.98 4.21v12.74l54.76 42.02z" fill="#b150ff"/><path d="m19.98 20.09h108v108h-108z" fill="none" stroke="#fc980f" stroke-miterlimit="10" stroke-width="14"/><g fill="#90d24a"><path d="m85.48 74.09 11.39 1.5h49.11v-3h-49.11z"/><path d="m62.49 74.09-11.39-1.5h-49.12v3h49.12z"/><path d="m62.88 77.06-11.39 1.5-49.51 13.27v3.1l50.29-13.47z"/><path d="m85.08 71.11 11.4-1.5 49.5-13.26v-3.11l-50.28 13.48z"/><path d="m64.03 79.84-10.61 4.39-51.44 29.7v3.46l52.94-30.56z"/><path d="m83.94 68.34 10.61-4.39 51.43-29.7v-3.46l-52.93 30.56z"/><path d="m82.11 65.96 9.11-6.99 54.76-54.76v-2.12h-2.12l-54.75 54.75z"/><path d="m65.86 82.22-9.12 6.99-54.76 54.76v2.12h2.12l54.76-54.76z"/><path d="m68.24 84.04-7 9.12-30.56 52.93h3.47l29.69-51.43z"/><path d="m79.73 64.14 6.99-9.12 30.56-52.93h-3.46l-29.69 51.43z"/><path d="m71.01 85.19-4.4 10.62-13.47 50.28h3.1l13.27-49.51z"/><path d="m76.96 62.99 4.39-10.62 13.48-50.28h-3.11l-13.26 49.51z"/><path d="m73.98 85.58-1.5 11.4v49.11h3v-49.11z"/><path d="m73.98 62.6 1.5-11.4v-49.11h-3v49.11z"/><path d="m71.01 62.99-1.5-11.39-13.27-49.51h-3.1l13.47 50.28z"/><path d="m76.96 85.19 1.5 11.39 13.26 49.51h3.11l-13.47-50.28z"/><path d="m79.73 84.04 4.4 10.62 29.69 51.43h3.46l-30.56-52.93z"/><path d="m68.24 64.14-4.4-10.62-29.69-51.43h-3.47l30.56 52.93z"/><path d="m65.86 65.96-7-9.11-54.76-54.76h-2.12v2.12l54.76 54.76z"/><path d="m82.11 82.22 7 9.11 54.75 54.76h2.12v-2.12l-54.75-54.76z"/><path d="m64.03 68.34-9.12-6.99-52.93-30.56v3.46l51.44 29.7z"/><path d="m83.94 79.84 9.11 6.99 52.93 30.56v-3.46l-51.43-29.7z"/><path d="m85.08 77.06 10.62 4.4 50.28 13.47v-3.1l-49.5-13.27z"/><path d="m62.88 71.11-10.62-4.39-50.28-13.48v3.11l49.51 13.26z"/><path d="m62.59 75.59h-11.49l-49.12 6.47v3.02l49.51-6.52z"/><path d="m85.38 72.59h11.49l49.11-6.47v-3.02l-49.5 6.51z"/><path d="m62.49 74.09-11.39 1.5h11.49l3.72-1z"/><path d="m85.48 74.09 11.39-1.5h-11.49l-3.72 1z"/><path d="m85.38 72.59 11.1-2.98-11.4 1.5-3.56 1.48z"/><path d="m62.59 75.59-11.1 2.97 11.39-1.5 3.56-1.47z"/><path d="m79.73 73.33 1.93.26 3.72-1h-3.86z"/><path d="m68.24 74.85-1.93-.26-3.72 1h3.85z"/><path d="m63.37 78.49-11.1 2.97-50.29 20.83v3.25l51.44-21.31z"/><path d="m84.6 69.69 11.1-2.97 50.28-20.83v-3.25l-51.43 21.31z"/><path d="m62.88 77.06-10.61 4.4 11.1-2.97 3.33-1.93z"/><path d="m85.08 71.11 10.62-4.39-11.1 2.97-3.34 1.93z"/><path d="m63.37 78.49-9.95 5.74 10.61-4.39 3.06-2.35z"/><path d="m84.6 69.69 9.95-5.74-10.61 4.39-3.06 2.35z"/><path d="m68.63 76.31-1.93.25-3.33 1.93 3.72-1z"/><path d="m79.34 71.87 1.92-.25 3.34-1.93-3.72 1z"/><path d="m68.39 75.59h-1.95l-3.56 1.47 3.82-.5z"/><path d="m79.58 72.59h1.94l3.56-1.48-3.82.51z"/><path d="m68.24 74.85-1.8.74h1.95l1.02-.59z"/><path d="m79.73 73.33 1.79-.74h-1.94l-1.02.59z"/><path d="m68.39 75.59-1.69.97 1.93-.25.93-.72z"/><path d="m79.58 72.59 1.68-.97-1.92.25-.94.72z"/><path d="m77.77 73.07.79.11 1.02-.59h-1.18z"/><path d="m70.2 75.1-.79-.1-1.02.59h1.17z"/><path d="m64.87 81.08-9.95 5.75-52.94 40.62v3.78l54.76-42.02z"/><path d="m83.1 67.09 9.95-5.74 52.93-40.62v-3.78l-54.76 42.02z"/><path d="m83.94 68.34 9.11-6.99-9.95 5.74-2.72 2.73z"/><path d="m64.03 79.84-9.11 6.99 9.95-5.75 2.72-2.72z"/><path d="m83.1 67.09 8.12-8.12-9.11 6.99-2.35 3.06z"/><path d="m64.87 81.08-8.13 8.13 9.12-6.99 2.34-3.06z"/><path d="m69.39 77.62-1.8.74-2.72 2.72 3.33-1.92z"/><path d="m78.58 70.56 1.8-.74 2.72-2.73-3.34 1.93z"/><path d="m68.96 76.99-1.87.5-3.06 2.35 3.56-1.48z"/><path d="m79 71.19 1.88-.5 3.06-2.35-3.56 1.48z"/><path d="m79.34 71.87 1.54-1.18-1.88.5-.83.84z"/><path d="m68.63 76.31-1.54 1.18 1.87-.5.84-.84z"/><path d="m79 71.19 1.38-1.37-1.8.74-.72.94z"/><path d="m68.96 76.99-1.37 1.37 1.8-.74.71-.94z"/><path d="m70.59 76.05-.79.1-.84.84 1.14-.31z"/><path d="m77.38 72.13.79-.1.83-.84-1.14.31z"/><path d="m77.6 72.59h.8l.94-.72-1.17.16z"/><path d="m70.36 75.59h-.8l-.93.72 1.17-.16z"/><path d="m70.2 75.1-.64.49h.8l.41-.41z"/><path d="m77.77 73.07.63-.48h-.8l-.41.41z"/><path d="m70.36 75.59-.56.56.79-.1.35-.46z"/><path d="m77.6 72.59.57-.56-.79.1-.35.46z"/><path d="m76.76 72.94.43.06.41-.41h-.57z"/><path d="m71.21 75.24-.44-.06-.41.41h.58z"/><path d="m66.99 83.2-8.13 8.13-42.01 54.76h3.78l40.61-52.93z"/><path d="m80.98 64.97 8.13-8.13 42.01-54.75h-3.78l-40.62 52.93z"/><path d="m65.86 82.22-7 9.11 8.13-8.13 1.92-3.33z"/><path d="m82.11 65.96 7-9.12-8.13 8.13-1.93 3.34z"/><path d="m80.98 64.97 5.74-9.95-6.99 9.12-1.48 3.56z"/><path d="m66.99 83.2-5.75 9.96 7-9.12 1.47-3.56z"/><path d="m70.45 78.69-1.54 1.18-1.92 3.33 2.72-2.72z"/><path d="m77.51 69.49 1.54-1.18 1.93-3.34-2.73 2.73z"/><path d="m69.89 78.19-1.69.97-2.34 3.06 3.05-2.35z"/><path d="m78.08 69.99 1.68-.97 2.35-3.06-3.06 2.35z"/><path d="m69.39 77.62-1.19 1.54 1.69-.97.59-1.02z"/><path d="m78.58 70.56 1.18-1.54-1.68.97-.59 1.02z"/><path d="m69.89 78.19-.98 1.68 1.54-1.18.46-1.09z"/><path d="m78.08 69.99.97-1.68-1.54 1.18-.45 1.09z"/><path d="m71.21 76.86-.73.31-.59 1.02 1.02-.59z"/><path d="m76.75 71.32.74-.31.59-1.02-1.02.59z"/><path d="m70.87 76.48-.77.2-.71.94 1.09-.45z"/><path d="m77.09 71.7.77-.2.72-.94-1.09.45z"/><path d="m77.38 72.13.48-.63-.77.2-.29.5z"/><path d="m70.59 76.05-.49.63.77-.2.29-.51z"/><path d="m70.87 76.48-.39.69.73-.31.22-.53z"/><path d="m77.09 71.7.4-.69-.74.31-.22.53z"/><path d="m71.6 75.92-.44.05-.29.51.56-.15z"/><path d="m76.36 72.26.44-.06.29-.5-.56.15z"/><path d="m76.58 72.59h.45l.35-.46-.58.07z"/><path d="m71.39 75.59h-.45l-.35.46.57-.08z"/><path d="m71.21 75.24-.27.35h.45l.17-.31z"/><path d="m76.76 72.94.27-.35h-.45l-.18.3z"/><path d="m71.39 75.59-.23.38.44-.05.14-.33z"/><path d="m76.58 72.59.22-.39-.44.06-.13.33z"/><path d="m71.85 75.32-.29-.04-.17.31h.35z"/><path d="m76.12 72.86.28.03.18-.3h-.35z"/><path d="m78.38 63.47 5.75-9.95 21.3-51.43h-3.25l-20.83 50.28z"/><path d="m69.59 84.71-5.75 9.95-21.3 51.43h3.24l20.83-50.28z"/><path d="m79.73 64.14 4.4-10.62-5.75 9.95-1 3.72z"/><path d="m68.24 84.04-4.4 10.62 5.75-9.95.99-3.72z"/><path d="m78.38 63.47 2.97-11.1-4.39 10.62-.51 3.82z"/><path d="m69.59 84.71-2.98 11.1 4.4-10.62.5-3.82z"/><path d="m71.76 79.44-1.18 1.55-.99 3.72 1.92-3.34z"/><path d="m76.2 68.74 1.18-1.55 1-3.72-1.93 3.34z"/><path d="m71.09 79.11-1.38 1.37-1.47 3.56 2.34-3.05z"/><path d="m76.88 69.07 1.37-1.37 1.48-3.56-2.35 3.05z"/><path d="m77.51 69.49.74-1.79-1.37 1.37-.3 1.14z"/><path d="m70.45 78.69-.74 1.79 1.38-1.37.3-1.14z"/><path d="m71.09 79.11-.51 1.88 1.18-1.55.16-1.17z"/><path d="m76.88 69.07.5-1.88-1.18 1.55-.15 1.16z"/><path d="m75.94 70.69.64-.48.3-1.14-.83.83z"/><path d="m72.02 77.48-.63.49-.3 1.14.83-.84z"/><path d="m71.6 77.2-.69.4-.46 1.09.94-.72z"/><path d="m76.37 70.98.69-.4.45-1.09-.93.72z"/><path d="m71.21 76.86-.3.74.69-.4.15-.56z"/><path d="m76.75 71.32.31-.74-.69.4-.15.56z"/><path d="m76.37 70.98.21-.77-.64.48-.07.58z"/><path d="m71.6 77.2-.21.77.63-.49.08-.57z"/><path d="m75.81 71.71.41-.17.15-.56-.5.29z"/><path d="m72.16 76.47-.41.17-.15.56.5-.29z"/><path d="m71.86 76.21-.43.12-.22.53.54-.22z"/><path d="m76.1 71.97.43-.12.22-.53-.53.22z"/><path d="m76.36 72.26.17-.41-.43.12-.09.34z"/><path d="m71.6 75.92-.17.41.43-.12.09-.34z"/><path d="m76.1 71.97.12-.43-.41.17-.05.35z"/><path d="m71.86 76.21-.11.43.41-.17.04-.35z"/><path d="m75.73 72.35.28-.04.09-.34-.34.09z"/><path d="m72.24 75.83-.29.04-.09.34.34-.09z"/><path d="m75.94 72.59h.29l.13-.33-.35.05z"/><path d="m72.03 75.59h-.29l-.14.33.35-.05z"/><path d="m76.12 72.86.11-.27h-.29l-.07.24z"/><path d="m71.85 75.32-.11.27h.29l.06-.24z"/><path d="m72.03 75.59-.08.28.29-.04.03-.24z"/><path d="m75.94 72.59.07-.28-.28.04-.04.24z"/><path d="m75.67 72.8.2.03.07-.24h-.25z"/><path d="m72.3 75.38-.21-.03-.06.24h.24z"/><path d="m72.48 85.48-2.97 11.1-6.52 49.51h3.03l6.46-49.11z"/><path d="m75.48 62.7 2.98-11.1 6.52-49.51h-3.03l-6.47 49.11z"/><path d="m71.01 85.19-1.5 11.39 2.97-11.1v-3.85z"/><path d="m76.96 62.99 1.5-11.39-2.98 11.1v3.85z"/><path d="m75.48 62.7v-11.5l-1.5 11.4.51 3.82z"/><path d="m72.48 85.48v11.5l1.5-11.4-.5-3.82z"/><path d="m73.23 79.84-.75 1.79v3.85l1-3.72z"/><path d="m74.74 68.34.74-1.79v-3.85l-.99 3.72z"/><path d="m75.48 68.49.97-1.68.51-3.82-1.48 3.56z"/><path d="m72.48 79.69-.97 1.68-.5 3.82 1.47-3.56z"/><path d="m76.2 68.74.25-1.93-.97 1.68v1.18z"/><path d="m71.76 79.44-.25 1.93.97-1.68v-1.18z"/><path d="m75.48 68.49v-1.94l-.74 1.79.15 1.17z"/><path d="m72.48 79.69v1.94l.75-1.79-.16-1.17z"/><path d="m72.97 77.88-.49.63v1.18l.59-1.02z"/><path d="m75 70.3.48-.63v-1.18l-.59 1.02z"/><path d="m72.48 77.71-.56.56-.16 1.17.72-.93z"/><path d="m75.48 70.47.57-.57.15-1.16-.72.93z"/><path d="m75.94 70.69.11-.79-.57.57v.58z"/><path d="m72.02 77.48-.1.79.56-.56v-.58z"/><path d="m72.48 77.71v.8l.49-.63-.08-.58z"/><path d="m75.48 70.47v-.8l-.48.63.07.58z"/><path d="m75.13 71.32.35-.27v-.58l-.41.41z"/><path d="m72.83 76.86-.35.27v.58l.41-.41z"/><path d="m75.48 71.49.39-.22.07-.58-.46.36z"/><path d="m72.48 76.69-.38.22-.08.57.46-.35z"/><path d="m72.16 76.47-.06.44.38-.22v-.36z"/><path d="m75.81 71.71.06-.44-.39.22v.35z"/><path d="m72.48 76.69v.44l.35-.27-.04-.35z"/><path d="m75.48 71.49v-.44l-.35.27.05.35z"/><path d="m72.75 76.22-.27.11v.36l.31-.18z"/><path d="m75.22 71.96.26-.12v-.35l-.3.18z"/><path d="m75.48 72.13.28-.07.05-.35-.33.13z"/><path d="m72.48 76.04-.28.08-.04.35.32-.14z"/><path d="m72.24 75.83-.04.29.28-.08v-.24z"/><path d="m75.73 72.35.03-.29-.28.07v.25z"/><path d="m72.48 76.04v.29l.27-.11-.03-.24z"/><path d="m75.48 72.13v-.29l-.26.12.03.24z"/><path d="m72.69 75.77-.21.03v.24l.24-.06z"/><path d="m75.27 72.41.21-.03v-.25l-.23.07z"/><path d="m72.48 75.59h-.21l-.03.24.24-.03z"/><path d="m75.48 72.59h.21l.04-.24-.25.03z"/><path d="m72.3 75.38-.03.21h.21v-.19z"/><path d="m75.67 72.8.02-.21h-.21v.18z"/><path d="m72.48 75.59v.21l.21-.03-.02-.18z"/><path d="m75.48 72.59v-.21l-.21.03.03.18z"/><path d="m75.32 72.75.16.02v-.18h-.18z"/><path d="m72.65 75.43-.17-.03v.19h.19z"/><path d="m75.48 85.48v11.5l6.47 49.11h3.03l-6.52-49.51z"/><path d="m72.48 62.7v-11.5l-6.46-49.11h-3.03l6.52 49.51z"/><path d="m73.98 85.58 1.5 11.4v-11.5l-.99-3.72z"/><path d="m73.98 62.6-1.5-11.4v11.5l1 3.72z"/><path d="m75.48 85.48 2.98 11.1-1.5-11.39-1.48-3.56z"/><path d="m72.48 62.7-2.97-11.1 1.5 11.39 1.47 3.56z"/><path d="m73.23 68.34.25-1.92-1-3.72v3.85z"/><path d="m74.74 79.84-.25 1.92.99 3.72v-3.85z"/><path d="m73.98 79.88-.5 1.88.5 3.82.51-3.82z"/><path d="m73.98 68.29.51-1.87-.51-3.82-.5 3.82z"/><path d="m74.74 68.34-.25-1.92-.51 1.87.31 1.14z"/><path d="m73.23 79.84.25 1.92.5-1.88-.3-1.13z"/><path d="m73.98 68.29-.5-1.87-.25 1.92.45 1.09z"/><path d="m73.98 79.88.51 1.88.25-1.92-.45-1.09z"/><path d="m73.98 70.17.31-.74-.31-1.14-.3 1.14z"/><path d="m73.98 78.01-.3.74.3 1.13.31-1.13z"/><path d="m73.47 77.98-.4.69.16 1.17.45-1.09z"/><path d="m74.49 70.2.4-.69-.15-1.17-.45 1.09z"/><path d="m72.97 77.88.1.79.4-.69-.15-.56z"/><path d="m75 70.3-.11-.79-.4.69.15.56z"/><path d="m74.49 70.2-.2-.77-.31.74.23.54z"/><path d="m73.47 77.98.21.77.3-.74-.22-.54z"/><path d="m73.59 77.06-.27.36.15.56.29-.51z"/><path d="m74.37 71.12.27-.36-.15-.56-.28.51z"/><path d="m74.76 71.19.31-.31-.07-.58-.36.46z"/><path d="m73.21 76.99-.32.31.08.58.35-.46z"/><path d="m72.83 76.86.06.44.32-.31-.09-.34z"/><path d="m75.13 71.32-.06-.44-.31.31.09.34z"/><path d="m73.21 76.99.11.43.27-.36-.13-.32z"/><path d="m74.76 71.19-.12-.43-.27.36.14.32z"/><path d="m73.35 76.47-.23.18.09.34.25-.25z"/><path d="m74.62 71.71.23-.18-.09-.34-.25.25z"/><path d="m74.93 71.81.25-.14-.05-.35-.28.21z"/><path d="m73.04 76.37-.25.14.04.35.29-.21z"/><path d="m75.22 71.96-.04-.29-.25.14.06.24z"/><path d="m72.75 76.22.04.29.25-.14-.06-.24z"/><path d="m73.04 76.37.08.28.23-.18-.1-.23z"/><path d="m74.93 71.81-.08-.28-.23.18.09.23z"/><path d="m74.79 72.13.2-.08-.06-.24-.22.13z"/><path d="m73.17 76.05-.19.08.06.24.21-.13z"/><path d="m72.92 75.93-.2.05.03.24.23-.09z"/><path d="m75.04 72.25.21-.05-.03-.24-.23.09z"/><path d="m75.27 72.41-.02-.21-.21.05.05.18z"/><path d="m72.69 75.77.03.21.2-.05-.05-.18z"/><path d="m75.04 72.25-.05-.2-.2.08.08.17z"/><path d="m72.92 75.93.06.2.19-.08-.07-.17z"/><path d="m74.93 72.45.16-.02-.05-.18-.17.05z"/><path d="m73.04 75.73-.17.02.05.18.18-.05z"/><path d="m75.13 72.59h.17l-.03-.18-.18.02z"/><path d="m72.83 75.59h-.16l.02.18.18-.02z"/><path d="m72.65 75.43.02.16h.16l-.04-.14z"/><path d="m75.32 72.75-.02-.16h-.17l.04.14z"/><path d="m75.13 72.59-.04-.16-.16.02.06.14z"/><path d="m72.83 75.59.04.16.17-.02-.06-.14z"/><path d="m72.93 75.46-.14-.01.04.14h.15z"/><path d="m75.04 72.71.13.02-.04-.14h-.14z"/><path d="m69.59 63.47-2.98-11.1-20.83-50.28h-3.24l21.3 51.43z"/><path d="m78.38 84.71 2.98 11.1 20.82 50.28h3.25l-21.3-51.43z"/><path d="m71.01 62.99-4.4-10.62 2.98 11.1 1.92 3.34z"/><path d="m76.96 85.19 4.4 10.62-2.98-11.1-1.93-3.34z"/><path d="m78.38 84.71 5.75 9.95-4.4-10.62-2.35-3.06z"/><path d="m69.59 63.47-5.75-9.95 4.4 10.62 2.34 3.05z"/><path d="m76.2 79.44.25 1.93 1.93 3.34-1-3.73z"/><path d="m71.77 68.73-.26-1.92-1.92-3.34.99 3.72z"/><path d="m75.48 79.69v1.94l1.48 3.56-.51-3.82z"/><path d="m72.48 68.49v-1.94l-1.47-3.56.5 3.82z"/><path d="m73.23 68.34-.75-1.79v1.94l.59 1.02z"/><path d="m74.74 79.84.74 1.79v-1.94l-.59-1.02z"/><path d="m72.48 68.49-.97-1.68.26 1.92.71.94z"/><path d="m75.48 79.69.97 1.68-.25-1.93-.72-.93z"/><path d="m75 77.88-.11.79.59 1.02v-1.18z"/><path d="m72.97 70.3.1-.79-.59-1.02v1.18z"/><path d="m74.49 77.98-.2.77.45 1.09.15-1.17z"/><path d="m73.47 70.2.21-.77-.45-1.09-.16 1.17z"/><path d="m73.98 70.17-.3-.74-.21.77.29.51z"/><path d="m73.98 78.01.31.74.2-.77-.28-.51z"/><path d="m73.47 70.2-.4-.69-.1.79.35.46z"/><path d="m74.49 77.98.4.69.11-.79-.36-.46z"/><path d="m74.37 77.06-.16.41.28.51.15-.56z"/><path d="m73.59 71.11.17-.4-.29-.51-.15.56z"/><path d="m73.98 71.09.23-.38-.23-.54-.22.54z"/><path d="m73.98 77.09-.22.38.22.54.23-.54z"/><path d="m73.59 77.06.17.41.22-.38-.17-.31z"/><path d="m74.37 71.12-.16-.41-.23.38.18.31z"/><path d="m73.98 71.09-.22-.38-.17.4.22.29z"/><path d="m73.98 77.09.23.38.16-.41-.21-.28z"/><path d="m73.98 71.63.18-.23-.18-.31-.17.31z"/><path d="m73.98 76.55-.17.23.17.31.18-.31z"/><path d="m73.66 76.53-.2.21.13.32.22-.28z"/><path d="m74.3 71.65.21-.21-.14-.32-.21.28z"/><path d="m74.62 71.71-.11-.27-.21.21.13.21z"/><path d="m73.35 76.47.11.27.2-.21-.12-.21z"/><path d="m73.66 76.53.15.25.17-.23-.15-.19z"/><path d="m74.3 71.65-.14-.25-.18.23.15.19z"/><path d="m73.71 76.19-.17.13.12.21.17-.17z"/><path d="m74.26 71.99.17-.13-.13-.21-.17.17z"/><path d="m73.43 76.14-.18.1.1.23.19-.15z"/><path d="m74.53 72.04.18-.1-.09-.23-.19.15z"/><path d="m74.79 72.13-.08-.19-.18.1.09.16z"/><path d="m73.17 76.05.08.19.18-.1-.09-.16z"/><path d="m74.53 72.04-.1-.18-.17.13.11.14z"/><path d="m73.43 76.14.11.18.17-.13-.12-.14z"/><path d="m74.47 72.26.15-.06-.09-.16-.16.09z"/><path d="m73.49 75.92-.15.06.09.16.16-.09z"/><path d="m73.26 75.84-.16.04.07.17.17-.07z"/><path d="m74.71 72.34.16-.04-.08-.17-.17.07z"/><path d="m73.04 75.73.06.15.16-.04-.07-.13z"/><path d="m74.93 72.45-.06-.15-.16.04.07.13z"/><path d="m73.26 75.84.08.14.15-.06-.09-.12z"/><path d="m74.71 72.34-.09-.14-.15.06.09.12z"/><path d="m73.32 75.69-.13.02.07.13.14-.04z"/><path d="m74.65 72.49.13-.02-.07-.13-.15.04z"/><path d="m73.12 75.59h-.14l.06.14.15-.02z"/><path d="m74.85 72.59h.14l-.06-.14-.15.02z"/><path d="m72.93 75.46.05.13h.14l-.07-.11z"/><path d="m75.04 72.71-.05-.12h-.14l.06.11z"/><path d="m74.85 72.59-.07-.12-.13.02.07.1z"/><path d="m73.12 75.59.07.12.13-.02-.08-.1z"/><path d="m74.8 72.68.11.02-.06-.11h-.13z"/><path d="m73.17 75.5-.12-.02.07.11h.12z"/><path d="m66.99 64.97-5.75-9.95-40.61-52.93h-3.79l42.02 54.76z"/><path d="m80.98 83.2 5.74 9.96 40.62 52.93h3.78l-42.01-54.76z"/><path d="m68.24 64.14-7-9.12 5.75 9.95 2.72 2.73z"/><path d="m79.73 84.04 6.99 9.12-5.74-9.96-2.73-2.72z"/><path d="m80.98 83.2 8.13 8.13-7-9.11-3.06-2.35z"/><path d="m66.99 64.97-8.13-8.12 7 9.11 3.05 2.35z"/><path d="m77.51 78.69.74 1.79 2.73 2.72-1.93-3.33z"/><path d="m70.45 69.49-.74-1.79-2.72-2.73 1.92 3.34z"/><path d="m76.88 79.11.5 1.87 2.35 3.06-1.48-3.56z"/><path d="m71.09 69.07-.51-1.88-2.34-3.05 1.47 3.56z"/><path d="m71.77 68.73-1.19-1.54.51 1.88.83.83z"/><path d="m76.2 79.44 1.18 1.54-.5-1.87-.83-.84z"/><path d="m76.88 79.11 1.37 1.37-.74-1.79-.93-.72z"/><path d="m71.09 69.07-1.38-1.37.74 1.79.94.72z"/><path d="m75.94 77.48.11.79.83.84-.3-1.14z"/><path d="m72.02 70.69-.1-.79-.83-.83.3 1.14z"/><path d="m72.48 70.47v-.8l-.71-.94.15 1.17z"/><path d="m75.48 77.71v.8l.72.93-.15-1.17z"/><path d="m72.97 70.3-.49-.63v.8l.41.41z"/><path d="m75 77.88.48.63v-.8l-.41-.41z"/><path d="m72.48 70.47-.56-.57.1.79.46.36z"/><path d="m75.48 77.71.57.56-.11-.79-.46-.35z"/><path d="m75.13 76.86-.06.44.41.41v-.58z"/><path d="m72.83 71.32.06-.44-.41-.41v.58z"/><path d="m74.76 76.99-.12.43.36.46.07-.58z"/><path d="m73.21 71.19.11-.43-.35-.46-.08.58z"/><path d="m73.59 71.11-.27-.35-.11.43.25.25z"/><path d="m74.37 77.06.27.36.12-.43-.25-.25z"/><path d="m73.21 71.19-.32-.31-.06.44.29.21z"/><path d="m74.76 76.99.31.31.06-.44-.28-.21z"/><path d="m73.35 71.71.11-.27-.25-.25-.09.34z"/><path d="m74.62 76.47-.11.27.25.25.09-.34z"/><path d="m74.3 76.53-.14.25.21.28.14-.32z"/><path d="m73.66 71.65.15-.25-.22-.29-.13.33z"/><path d="m73.98 71.63-.17-.23-.15.25.17.17z"/><path d="m73.98 76.55.18.23.14-.25-.17-.17z"/><path d="m73.66 71.65-.2-.21-.11.27.19.15z"/><path d="m74.3 76.53.21.21.11-.27-.19-.15z"/><path d="m74.26 76.19-.13.17.17.17.13-.21z"/><path d="m73.71 71.99.12-.17-.17-.17-.12.21z"/><path d="m73.98 71.97.15-.15-.15-.19-.15.19z"/><path d="m73.98 76.21-.15.15.15.19.15-.19z"/><path d="m74.26 71.99-.13-.17-.15.15.13.13z"/><path d="m73.71 76.19.12.17.15-.15-.13-.13z"/><path d="m73.98 76.21.15.15.13-.17-.15-.11z"/><path d="m73.98 71.97-.15-.15-.12.17.14.11z"/><path d="m73.98 72.2.13-.1-.13-.13-.13.13z"/><path d="m73.98 75.98-.13.1.13.13.13-.13z"/><path d="m73.74 75.96-.15.09.12.14.14-.11z"/><path d="m74.23 72.21.14-.08-.11-.14-.15.11z"/><path d="m74.47 72.26-.1-.13-.14.08.1.11z"/><path d="m73.49 75.92.1.13.15-.09-.11-.1z"/><path d="m73.74 75.96.11.12.13-.1-.12-.09z"/><path d="m74.23 72.21-.12-.11-.13.1.12.09z"/><path d="m74.21 72.37.12-.05-.1-.11-.13.08z"/><path d="m73.76 75.81-.13.05.11.1.12-.07z"/><path d="m73.53 75.76-.13.04.09.12.14-.06z"/><path d="m74.43 72.42.13-.04-.09-.12-.14.06z"/><path d="m74.65 72.49-.09-.11-.13.04.09.09z"/><path d="m73.32 75.69.08.11.13-.04-.08-.09z"/><path d="m73.53 75.76.1.1.13-.05-.1-.08z"/><path d="m74.43 72.42-.1-.1-.12.05.1.08z"/><path d="m74.4 72.52.12-.01-.09-.09-.12.03z"/><path d="m73.56 75.66-.11.01.08.09.13-.03z"/><path d="m73.36 75.59h-.12l.08.1.13-.02z"/><path d="m74.6 72.59h.12l-.07-.1-.13.02z"/><path d="m74.8 72.68-.08-.09h-.12l.08.08z"/><path d="m73.17 75.5.07.09h.12l-.08-.08z"/><path d="m73.36 75.59.09.08.11-.01-.09-.07z"/><path d="m74.6 72.59-.08-.08-.12.01.09.07z"/><path d="m73.39 75.52-.11-.01.08.08h.11z"/><path d="m74.58 72.65.1.02-.08-.08h-.11z"/><path d="m64.87 67.09-8.13-8.12-54.76-42.02v3.78l52.93 40.62z"/><path d="m83.1 81.08 8.13 8.13 54.75 42.02v-3.78l-52.93-40.62z"/><path d="m65.86 65.96-9.12-6.99 8.13 8.12 3.33 1.93z"/><path d="m82.11 82.22 9.12 6.99-8.13-8.13-3.34-1.92z"/><path d="m83.1 81.08 9.95 5.75-9.11-6.99-3.56-1.48z"/><path d="m64.87 67.09-9.96-5.74 9.12 6.99 3.56 1.48z"/><path d="m69.38 70.56-1.18-1.54-3.33-1.93 2.72 2.73z"/><path d="m78.58 77.62 1.18 1.54 3.34 1.92-2.72-2.72z"/><path d="m69.89 69.99-.98-1.68-3.05-2.35 2.34 3.06z"/><path d="m78.08 78.19.97 1.68 3.06 2.35-2.35-3.06z"/><path d="m77.51 78.69 1.54 1.18-.97-1.68-1.02-.59z"/><path d="m70.45 69.49-1.54-1.18.98 1.68 1.02.59z"/><path d="m78.08 78.19 1.68.97-1.18-1.54-1.09-.45z"/><path d="m69.89 69.99-1.69-.97 1.18 1.54 1.09.45z"/><path d="m71.21 71.32-.3-.74-1.02-.59.58 1.02z"/><path d="m76.75 76.86.31.74 1.02.59-.59-1.02z"/><path d="m71.6 70.98-.21-.77-.94-.72.46 1.09z"/><path d="m76.37 77.2.21.77.93.72-.45-1.09z"/><path d="m72.02 70.69-.63-.48.21.77.5.29z"/><path d="m75.94 77.48.64.49-.21-.77-.5-.29z"/><path d="m71.6 70.98-.69-.4.3.74.54.22z"/><path d="m76.37 77.2.69.4-.31-.74-.53-.22z"/><path d="m72.16 71.71-.06-.44-.5-.29.15.56z"/><path d="m75.81 76.47.06.44.5.29-.15-.56z"/><path d="m72.48 71.49v-.44l-.46-.36.08.58z"/><path d="m75.48 76.69v.44l.46.35-.07-.57z"/><path d="m72.83 71.32-.35-.27v.44l.31.18z"/><path d="m75.13 76.86.35.27v-.44l-.3-.18z"/><path d="m75.48 76.69.39.22-.06-.44-.33-.14z"/><path d="m72.48 71.49-.38-.22.06.44.32.13z"/><path d="m72.75 71.96.04-.29-.31-.18v.35z"/><path d="m75.22 76.22-.04.29.3.18v-.36z"/><path d="m74.93 76.37-.08.28.28.21.05-.35z"/><path d="m73.04 71.81.08-.28-.29-.21-.04.35z"/><path d="m73.35 71.71-.23-.18-.08.28.21.13z"/><path d="m74.62 76.47.23.18.08-.28-.22-.13z"/><path d="m73.04 71.81-.25-.14-.04.29.23.09z"/><path d="m74.93 76.37.25.14.04-.29-.23-.09z"/><path d="m73.17 72.13.08-.19-.21-.13-.06.24z"/><path d="m74.8 76.05-.09.19.22.13.06-.24z"/><path d="m73.43 72.04.11-.18-.19-.15-.1.23z"/><path d="m74.53 76.14-.1.18.19.15.09-.23z"/><path d="m74.26 76.19.17.13.1-.18-.16-.09z"/><path d="m73.71 71.99-.17-.13-.11.18.16.09z"/><path d="m74.53 76.14.18.1.09-.19-.18-.07z"/><path d="m73.43 72.04-.18-.1-.08.19.17.07z"/><path d="m73.49 72.26.1-.13-.16-.09-.09.16z"/><path d="m74.47 75.92-.1.13.16.09.09-.16z"/><path d="m74.23 75.96-.12.12.15.11.11-.14z"/><path d="m73.74 72.21.11-.11-.14-.11-.12.14z"/><path d="m73.98 72.2-.13-.1-.11.11.13.08z"/><path d="m73.98 75.98.13.1.12-.12-.13-.07z"/><path d="m74.23 75.96.14.09.1-.13-.14-.06z"/><path d="m73.74 72.21-.15-.08-.1.13.14.06z"/><path d="m73.76 72.37.11-.08-.13-.08-.11.11z"/><path d="m74.21 75.81-.11.08.13.07.1-.1z"/><path d="m73.98 75.82-.12.07.12.09.12-.09z"/><path d="m73.98 72.36.12-.07-.12-.09-.11.09z"/><path d="m73.76 75.81.1.08.12-.07-.11-.06z"/><path d="m74.21 72.37-.11-.08-.12.07.11.06z"/><path d="m73.98 75.82.12.07.11-.08-.12-.05z"/><path d="m73.98 72.36-.11-.07-.11.08.11.05z"/><path d="m73.98 75.71-.11.05.11.06.11-.06z"/><path d="m73.98 72.47.11-.05-.11-.06-.11.06z"/><path d="m74.19 72.48.12-.03-.1-.08-.12.05z"/><path d="m73.77 75.7-.11.03.1.08.11-.05z"/><path d="m73.56 75.66.1.07.11-.03-.1-.06z"/><path d="m74.4 72.52-.09-.07-.12.03.1.06z"/><path d="m74.19 72.48-.1-.06-.11.05.11.04z"/><path d="m73.77 75.7.1.06.11-.05-.1-.04z"/><path d="m74.19 72.55.1-.01-.1-.06-.1.03z"/><path d="m73.78 75.63-.11.01.1.06.11-.03z"/><path d="m74.38 72.59h.11l-.09-.07-.11.02z"/><path d="m73.58 75.59h-.11l.09.07.11-.02z"/><path d="m73.39 75.52.08.07h.11l-.09-.05z"/><path d="m74.58 72.65-.09-.06h-.11l.09.05z"/><path d="m73.58 75.59.09.05.11-.01-.1-.04z"/><path d="m74.38 72.59-.09-.05-.1.01.09.04z"/><path d="m73.59 75.55-.1-.01.09.05h.1z"/><path d="m74.37 72.63.1.01-.09-.05h-.1z"/><path d="m84.6 78.49 9.95 5.74 51.43 21.31v-3.25l-50.28-20.83z"/><path d="m63.37 69.69-9.95-5.74-51.44-21.31v3.25l50.28 20.83z"/><path d="m64.03 68.34-10.61-4.39 9.95 5.74 3.72 1z"/><path d="m83.94 79.84 10.61 4.39-9.95-5.74-3.72-1z"/><path d="m84.6 78.49 11.1 2.97-10.62-4.4-3.82-.5z"/><path d="m63.37 69.69-11.11-2.97 10.62 4.39 3.82.51z"/><path d="m68.63 71.87-1.54-1.18-3.72-1 3.33 1.93z"/><path d="m79.34 76.31 1.54 1.18 3.72 1-3.34-1.93z"/><path d="m79 76.99 1.38 1.37 3.56 1.48-3.06-2.35z"/><path d="m68.96 71.19-1.37-1.37-3.56-1.48 3.06 2.35z"/><path d="m78.58 77.62 1.8.74-1.38-1.37-1.14-.31z"/><path d="m69.38 70.56-1.79-.74 1.37 1.37 1.14.31z"/><path d="m68.96 71.19-1.87-.5 1.54 1.18 1.17.16z"/><path d="m79 76.99 1.88.5-1.54-1.18-1.17-.16z"/><path d="m77.38 76.05.48.63 1.14.31-.83-.84z"/><path d="m70.59 72.13-.49-.63-1.14-.31.84.84z"/><path d="m77.09 76.48.4.69 1.09.45-.72-.94z"/><path d="m70.87 71.7-.4-.69-1.09-.45.72.94z"/><path d="m76.75 76.86.74.31-.4-.69-.56-.15z"/><path d="m71.21 71.32-.74-.31.4.69.56.15z"/><path d="m70.87 71.7-.77-.2.49.63.57.07z"/><path d="m77.09 76.48.77.2-.48-.63-.58-.08z"/><path d="m71.6 72.26-.17-.41-.56-.15.29.5z"/><path d="m76.36 75.92.17.41.56.15-.29-.51z"/><path d="m76.1 76.21.12.43.53.22-.22-.53z"/><path d="m71.86 71.97-.11-.43-.54-.22.22.53z"/><path d="m75.81 76.47.41.17-.12-.43-.34-.09z"/><path d="m72.16 71.71-.41-.17.11.43.34.09z"/><path d="m71.86 71.97-.43-.12.17.41.35.05z"/><path d="m76.1 76.21.43.12-.17-.41-.35-.05z"/><path d="m72.24 72.35-.04-.29-.34-.09.09.34z"/><path d="m75.73 75.83.03.29.34.09-.09-.34z"/><path d="m75.48 76.04v.29l.33.14-.05-.35z"/><path d="m72.48 72.13v-.29l-.32-.13.04.35z"/><path d="m72.75 71.96-.27-.12v.29l.24.07z"/><path d="m75.22 76.22.26.11v-.29l-.23-.06z"/><path d="m72.48 72.13-.28-.07.04.29.24.03z"/><path d="m75.48 76.04.28.08-.03-.29-.25-.03z"/><path d="m72.69 72.41.03-.21-.24-.07v.25z"/><path d="m75.27 75.77-.02.21.23.06v-.24z"/><path d="m72.92 72.25.06-.2-.23-.09-.03.24z"/><path d="m75.04 75.93-.05.2.23.09.03-.24z"/><path d="m73.17 72.13-.19-.08-.06.2.18.05z"/><path d="m74.8 76.05.19.08.05-.2-.17-.05z"/><path d="m72.92 72.25-.2-.05-.03.21.18.02z"/><path d="m75.04 75.93.21.05.02-.21-.18-.02z"/><path d="m74.93 75.73-.06.15.17.05.05-.18z"/><path d="m73.04 72.45.06-.15-.18-.05-.05.18z"/><path d="m73.26 72.34.08-.14-.17-.07-.07.17z"/><path d="m74.71 75.84-.09.14.18.07.07-.17z"/><path d="m74.47 75.92.15.06.09-.14-.15-.04z"/><path d="m73.49 72.26-.15-.06-.08.14.14.04z"/><path d="m74.71 75.84.16.04.06-.15-.15-.02z"/><path d="m73.26 72.34-.16-.04-.06.15.15.02z"/><path d="m74.65 75.69-.09.11.15.04.07-.13z"/><path d="m73.32 72.49.08-.11-.14-.04-.07.13z"/><path d="m74.43 75.76-.1.1.14.06.09-.12z"/><path d="m73.54 72.42.09-.1-.14-.06-.09.12z"/><path d="m74.21 75.81.12.05.1-.1-.12-.03z"/><path d="m73.76 72.37-.13-.05-.09.1.12.03z"/><path d="m73.54 72.42-.14-.04-.08.11.13.02z"/><path d="m74.43 75.76.13.04.09-.11-.13-.02z"/><path d="m73.56 72.52.1-.07-.12-.03-.09.09z"/><path d="m74.4 75.66-.09.07.12.03.09-.09z"/><path d="m73.77 72.48.1-.06-.11-.05-.1.08z"/><path d="m74.2 75.7-.11.06.12.05.1-.08z"/><path d="m73.98 72.47-.11-.05-.1.06.11.03z"/><path d="m73.98 75.71.11.05.11-.06-.11-.03z"/><path d="m73.77 72.48-.11-.03-.1.07.11.02z"/><path d="m74.2 75.7.11.03.09-.07-.11-.02z"/><path d="m73.78 72.55.1-.04-.11-.03-.1.06z"/><path d="m74.19 75.63-.1.04.11.03.09-.06z"/><path d="m73.98 75.64-.1.03.1.04.11-.04z"/><path d="m73.98 72.54.11-.03-.11-.04-.1.04z"/><path d="m74.19 72.55-.1-.04-.11.03.1.02z"/><path d="m73.78 75.63.1.04.1-.03-.1-.02z"/><path d="m73.98 72.54-.1-.03-.1.04.1.01z"/><path d="m73.98 75.64.11.03.1-.04-.11-.01z"/><path d="m73.98 75.6-.1.02.1.02.1-.02z"/><path d="m73.98 72.58.1-.02-.1-.02-.1.02z"/><path d="m74.18 72.59h.1l-.09-.04-.11.01z"/><path d="m73.79 75.59h-.11l.1.04.1-.01z"/><path d="m73.59 75.55.09.04h.11l-.1-.03z"/><path d="m74.37 72.63-.09-.04h-.1l.1.03z"/><path d="m73.79 75.59.09.03.1-.02-.1-.01z"/><path d="m74.18 72.59-.1-.03-.1.02.1.01z"/><path d="m74.28 72.62-.1-.03h-.1z"/><path d="m73.69 75.56.1.03h.09z"/><path d="m85.38 75.59 11.1 2.97 49.5 6.52v-3.02l-49.11-6.47z"/><path d="m62.59 72.59-11.1-2.98-49.51-6.51v3.02l49.12 6.47z"/><path d="m81.66 74.59 3.72 1h11.49l-11.39-1.5z"/><path d="m62.59 72.59h-11.49l11.39 1.5 3.82-.5z"/><path d="m85.08 77.06 11.4 1.5-11.1-2.97h-3.86z"/><path d="m62.88 71.11-11.39-1.5 11.1 2.98h3.85z"/><path d="m79.73 74.85 1.79.74h3.86l-3.72-1z"/><path d="m68.24 73.33-1.8-.74h-3.85l3.72 1z"/><path d="m68.19 74.09-1.88-.5-3.82.5 3.82.5z"/><path d="m79.78 74.09 1.88.5 3.82-.5-3.82-.5z"/><path d="m68.19 74.09-1.88.5 1.93.26 1.09-.46z"/><path d="m79.78 74.09 1.88-.5-1.93-.26-1.09.45z"/><path d="m68.24 73.33-1.93.26 1.88.5 1.14-.31z"/><path d="m78.64 74.39 1.09.46 1.93-.26-1.88-.5z"/><path d="m70.06 74.09-.73-.31-1.14.31 1.14.3z"/><path d="m77.9 74.09.74.3 1.14-.3-1.14-.31z"/><path d="m77.87 73.58.77.2 1.09-.45-1.17-.15z"/><path d="m70.1 74.6-.77-.21-1.09.46 1.17.15z"/><path d="m77.87 73.58.69-.4-.79-.11-.46.36z"/><path d="m70.1 74.6-.69.4.79.1.46-.35z"/><path d="m70.06 74.09-.73.3.77.21.5-.29z"/><path d="m77.9 74.09.74-.31-.77-.2-.5.29z"/><path d="m71.01 74.48-.41-.17-.5.29.56.15z"/><path d="m76.96 73.7.41.17.5-.29-.56-.15z"/><path d="m76.88 73.31.43.12.46-.36-.58-.07z"/><path d="m71.09 74.87-.43-.12-.46.35.57.08z"/><path d="m71.09 74.87-.32.31.44.06.22-.28z"/><path d="m76.88 73.31.31-.31-.43-.06-.22.28z"/><path d="m71.01 74.48-.35.27.43.12.25-.25z"/><path d="m76.96 73.7.35-.27-.43-.12-.25.25z"/><path d="m76.36 73.45.27.11.25-.25-.34-.09z"/><path d="m71.6 74.73-.26-.11-.25.25.34.09z"/><path d="m76.26 73.15.28.07.22-.28-.36-.05z"/><path d="m71.71 75.03-.28-.07-.22.28.35.04z"/><path d="m71.71 75.03-.15.25.29.04.09-.22z"/><path d="m76.26 73.15.14-.26-.28-.03-.1.22z"/><path d="m76.36 73.45.18-.23-.28-.07-.12.21z"/><path d="m71.6 74.73-.17.23.28.07.12-.21z"/><path d="m72.02 74.9-.19-.08-.12.21.23.07z"/><path d="m75.94 73.28.2.08.12-.21-.24-.07z"/><path d="m75.82 73.03.2.05.1-.22-.25-.03z"/><path d="m72.15 75.15-.21-.05-.09.22.24.03z"/><path d="m72.15 75.15-.06.2.21.03.02-.18z"/><path d="m75.82 73.03.05-.2-.2-.03-.03.18z"/><path d="m72.02 74.9-.08.2.21.05.04-.18z"/><path d="m75.94 73.28.08-.2-.2-.05-.05.18z"/><path d="m75.62 73.14.15.07.05-.18-.18-.05z"/><path d="m72.35 75.03-.16-.06-.04.18.17.05z"/><path d="m75.48 72.94.16.04.03-.18-.19-.03z"/><path d="m72.48 75.24-.16-.04-.02.18.18.02z"/><path d="m75.48 72.94v-.17l-.16-.02.02.15z"/><path d="m72.48 75.24v.16l.17.03-.02-.15z"/><path d="m72.35 75.03-.03.17.16.04v-.15z"/><path d="m75.62 73.14.02-.16-.16-.04v.15z"/><path d="m72.61 75.14-.13-.05v.15l.15.04z"/><path d="m75.36 73.03.12.06v-.15l-.14-.04z"/><path d="m75.21 72.86.13.04-.02-.15-.15-.02z"/><path d="m72.76 75.31-.13-.03.02.15.14.02z"/><path d="m75.21 72.86-.04-.13-.13-.02.05.12z"/><path d="m72.76 75.31.03.14.14.01-.05-.11z"/><path d="m72.61 75.14.02.14.13.03-.03-.12z"/><path d="m75.36 73.03-.02-.13-.13-.04.03.13z"/><path d="m75.13 72.94.11.05-.03-.13-.12-.03z"/><path d="m72.83 75.24-.1-.05.03.12.12.04z"/><path d="m72.99 75.38-.11-.03.05.11.12.02z"/><path d="m74.97 72.8.12.03-.05-.12-.13-.01z"/><path d="m72.99 75.38.06.1.12.02-.07-.09z"/><path d="m74.97 72.8-.06-.1-.11-.02.06.09z"/><path d="m75.13 72.94-.04-.11-.12-.03.06.1z"/><path d="m72.83 75.24.05.11.11.03-.05-.1z"/><path d="m74.93 72.86.1.04-.06-.1-.11-.03z"/><path d="m73.04 75.32-.1-.04.05.1.11.03z"/><path d="m73.21 75.43-.11-.02.07.09.11.01z"/><path d="m74.76 72.74.1.03-.06-.09-.12-.01z"/><path d="m73.21 75.43.07.08.11.01-.08-.06z"/><path d="m74.76 72.74-.08-.07-.1-.02.08.07z"/><path d="m74.93 72.86-.07-.09-.1-.03.07.08z"/><path d="m73.04 75.32.06.09.11.02-.08-.07z"/><path d="m74.74 72.78.09.04-.07-.08-.1-.02z"/><path d="m73.23 75.4-.1-.04.08.07.1.03z"/><path d="m74.56 72.69.1.03-.08-.07-.11-.01z"/><path d="m73.4 75.49-.09-.03.08.06.1.02z"/><path d="m74.56 72.69-.09-.05-.1-.01.09.03z"/><path d="m73.4 75.49.09.05.1.01-.09-.04z"/><path d="m74.74 72.78-.08-.06-.1-.03.09.05z"/><path d="m73.23 75.4.08.06.09.03-.08-.05z"/><path d="m74.65 72.74-.09-.05-.1-.03z"/><path d="m73.32 75.44.08.05.1.02z"/><path d="m79.58 75.59 1.68.97 3.82.5-3.56-1.47z"/><path d="m68.39 72.59-1.69-.97-3.82-.51 3.56 1.48z"/><path d="m79.58 75.59h1.94l-1.79-.74-1.17.15z"/><path d="m68.39 72.59h-1.95l1.8.74 1.17-.15z"/><path d="m68.63 71.87-1.93-.25 1.69.97h1.17z"/><path d="m79.34 76.31 1.92.25-1.68-.97h-1.18z"/><path d="m70.2 73.07-.64-.48h-1.17l1.02.59z"/><path d="m77.77 75.1.63.49h1.18l-1.02-.59z"/><path d="m77.87 74.6.69.4 1.17-.15-1.09-.46z"/><path d="m70.1 73.58-.69-.4-1.17.15 1.09.45z"/><path d="m77.37 74.31.5.29.77-.21-.74-.3z"/><path d="m70.1 73.58-.77.2.73.31.54-.22z"/><path d="m77.77 75.1.79-.1-.69-.4-.56.15z"/><path d="m70.2 73.07-.79.11.69.4.56-.15z"/><path d="m71.01 73.7-.35-.27-.56.15.5.29z"/><path d="m76.96 74.48.35.27.56-.15-.5-.29z"/><path d="m76.98 74.09.39.22.53-.22-.53-.22z"/><path d="m70.98 74.09-.38-.22-.54.22.54.22z"/><path d="m70.98 74.09-.38.22.41.17.28-.21z"/><path d="m76.98 74.09.39-.22-.41-.17-.28.21z"/><path d="m76.68 74.27.28.21.41-.17-.39-.22z"/><path d="m71.01 73.7-.41.17.38.22.31-.18z"/><path d="m71.52 74.09-.23-.18-.31.18.31.18z"/><path d="m76.45 74.09.23.18.3-.18-.3-.18z"/><path d="m71.54 74.41-.25-.14-.28.21.33.14z"/><path d="m76.43 73.77.25.14.28-.21-.33-.14z"/><path d="m71.54 74.41-.2.21.26.11.15-.2z"/><path d="m76.43 73.77.2-.21-.27-.11-.15.2z"/><path d="m76.45 74.09.23-.18-.25-.14-.18.17z"/><path d="m71.52 74.09-.23.18.25.14.17-.17z"/><path d="m71.88 74.37-.17-.13-.17.17.21.12z"/><path d="m76.09 73.81.16.13.18-.17-.22-.12z"/><path d="m76.03 73.54.18.11.15-.2-.22-.09z"/><path d="m71.93 74.64-.18-.11-.15.2.23.09z"/><path d="m71.93 74.64-.1.18.19.08.07-.17z"/><path d="m76.03 73.54.11-.18-.2-.08-.07.17z"/><path d="m76.09 73.81.12-.16-.18-.11-.09.16z"/><path d="m71.88 74.37-.13.16.18.11.1-.16z"/><path d="m75.81 73.6.13.1.09-.16-.16-.09z"/><path d="m72.16 74.58-.13-.1-.1.16.16.09z"/><path d="m75.73 73.37.14.08.07-.17-.17-.07z"/><path d="m72.24 74.81-.15-.08-.07.17.17.07z"/><path d="m72.24 74.81-.05.16.16.06.01-.14z"/><path d="m75.73 73.37.04-.16-.15-.07-.02.15z"/><path d="m75.81 73.6.06-.15-.14-.08-.04.14z"/><path d="m72.16 74.58-.07.15.15.08.03-.14z"/><path d="m72.38 74.75-.11-.08-.03.14.12.08z"/><path d="m75.58 73.43.11.08.04-.14-.13-.08z"/><path d="m72.48 74.95-.12-.06-.01.14.13.06z"/><path d="m75.48 73.22.12.07.02-.15-.14-.05z"/><path d="m72.48 74.95v.14l.13.05-.02-.12z"/><path d="m75.48 73.22v-.13l-.12-.06.01.13z"/><path d="m75.58 73.43.02-.14-.12-.07v.13z"/><path d="m72.38 74.75-.02.14.12.06v-.12z"/><path d="m75.39 73.28.09.07v-.13l-.11-.06z"/><path d="m72.58 74.9-.1-.07v.12l.11.07z"/><path d="m72.69 75.08-.1-.06.02.12.12.05z"/><path d="m75.27 73.1.1.06-.01-.13-.12-.04z"/><path d="m72.69 75.08.04.11.1.05-.04-.11z"/><path d="m75.27 73.1-.03-.11-.11-.05.04.1z"/><path d="m72.58 74.9.01.12.1.06-.02-.11z"/><path d="m75.39 73.28-.02-.12-.1-.06.03.11z"/><path d="m72.75 75.03-.08-.06.02.11.1.05z"/><path d="m75.21 73.14.09.07-.03-.11-.1-.06z"/><path d="m72.88 75.19-.09-.06.04.11.11.04z"/><path d="m75.08 72.99.09.05-.04-.1-.1-.04z"/><path d="m72.88 75.19.06.09.1.04-.07-.08z"/><path d="m75.08 72.99-.05-.09-.1-.04.06.08z"/><path d="m72.75 75.03.04.1.09.06-.05-.09z"/><path d="m75.21 73.14-.04-.1-.09-.05.05.09z"/><path d="m72.91 75.16-.08-.06.05.09.09.05z"/><path d="m75.05 73.02.08.06-.05-.09-.09-.05z"/><path d="m73.06 75.29-.09-.05.07.08.09.04z"/><path d="m74.9 72.89.09.05-.06-.08-.1-.04z"/><path d="m74.9 72.89-.07-.07-.09-.04.08.06z"/><path d="m73.06 75.29.07.07.1.04-.08-.06z"/><path d="m72.91 75.16.06.08.09.05-.07-.07z"/><path d="m75.05 73.02-.06-.08-.09-.05.07.07z"/><path d="m74.97 72.96-.07-.07-.08-.05z"/><path d="m72.99 75.22.07.07.09.05z"/><path d="m77.6 75.59.57.56 1.17.16-.94-.72z"/><path d="m70.36 72.59-.56-.56-1.17-.16.93.72z"/><path d="m70.36 72.59h-.8l.64.48.57-.07z"/><path d="m77.6 75.59h.8l-.63-.49-.58.08z"/><path d="m77.38 76.05.79.1-.57-.56h-.58z"/><path d="m70.59 72.13-.79-.1.56.56h.58z"/><path d="m76.76 75.24.26.35h.58l-.41-.41z"/><path d="m71.21 72.94-.27-.35h-.58l.41.41z"/><path d="m71.09 73.31-.32-.31-.57.07.46.36z"/><path d="m76.88 74.87.31.31.58-.08-.46-.35z"/><path d="m71.09 73.31-.43.12.35.27.33-.14z"/><path d="m76.88 74.87.43-.12-.35-.27-.33.14z"/><path d="m76.76 75.24.43-.06-.31-.31-.34.09z"/><path d="m71.21 72.94-.44.06.32.31.34-.09z"/><path d="m71.6 73.45-.17-.23-.34.09.25.25z"/><path d="m76.36 74.73.18.23.34-.09-.25-.25z"/><path d="m71.54 73.77-.2-.21-.33.14.28.21z"/><path d="m76.43 74.41.2.21.33-.14-.28-.21z"/><path d="m71.54 73.77-.25.14.23.18.19-.15z"/><path d="m76.25 74.24.18.17.25-.14-.23-.18z"/><path d="m76.36 74.73.27-.11-.2-.21-.22.12z"/><path d="m71.6 73.45-.26.11.2.21.21-.12z"/><path d="m71.88 73.81-.13-.16-.21.12.17.17z"/><path d="m76.09 74.37.12.16.22-.12-.18-.17z"/><path d="m71.86 74.09-.15-.15-.19.15.19.15z"/><path d="m76.1 74.09.15.15.2-.15-.2-.15z"/><path d="m76.1 74.09.15-.15-.16-.13-.12.15z"/><path d="m71.86 74.09-.15.15.17.13.11-.15z"/><path d="m71.88 73.81-.17.13.15.15.13-.13z"/><path d="m75.97 74.22.12.15.16-.13-.15-.15z"/><path d="m72.09 74.09-.1-.13-.13.13.13.13z"/><path d="m75.87 74.09.1.13.13-.13-.13-.13z"/><path d="m75.86 73.84.11.12.12-.15-.15-.11z"/><path d="m72.11 74.34-.12-.12-.11.15.15.11z"/><path d="m72.11 74.34-.08.14.13.1.05-.14z"/><path d="m75.86 73.84.08-.14-.13-.1-.06.14z"/><path d="m75.87 74.09.1-.13-.11-.12-.08.13z"/><path d="m72.09 74.09-.1.13.12.12.07-.13z"/><path d="m72.27 74.32-.09-.11-.07.13.1.1z"/><path d="m75.7 73.86.08.11.08-.13-.11-.1z"/><path d="m75.66 73.64.09.1.06-.14-.12-.09z"/><path d="m72.31 74.54-.1-.1-.05.14.11.09z"/><path d="m72.31 74.54-.04.13.11.08.02-.12z"/><path d="m75.66 73.64.03-.13-.11-.08-.01.12z"/><path d="m75.7 73.86.05-.12-.09-.1-.04.12z"/><path d="m72.27 74.32-.06.12.1.1.03-.12z"/><path d="m75.55 73.67.07.09.04-.12-.09-.09z"/><path d="m72.41 74.51-.07-.09-.03.12.09.09z"/><path d="m75.48 73.47.09.08.01-.12-.1-.08z"/><path d="m72.48 74.71-.08-.08-.02.12.1.08z"/><path d="m75.48 73.47v-.12l-.09-.07.01.11z"/><path d="m72.48 74.71v.12l.1.07-.02-.11z"/><path d="m72.41 74.51-.01.12.08.08v-.11z"/><path d="m75.55 73.67.02-.12-.09-.08v.11z"/><path d="m75.42 73.49.06.09v-.11l-.08-.08z"/><path d="m72.55 74.68-.07-.08v.11l.08.08z"/><path d="m75.33 73.31.07.08-.01-.11-.09-.07z"/><path d="m72.64 74.87-.08-.08.02.11.09.07z"/><path d="m75.33 73.31-.03-.1-.09-.07.04.1z"/><path d="m72.64 74.87.03.1.08.06-.04-.09z"/><path d="m72.55 74.68.01.11.08.08-.03-.1z"/><path d="m75.42 73.49-.02-.1-.07-.08.02.1z"/><path d="m72.67 74.85-.06-.08.03.1.07.07z"/><path d="m75.29 73.33.06.08-.02-.1-.08-.07z"/><path d="m75.18 73.17.07.07-.04-.1-.08-.06z"/><path d="m72.78 75.01-.07-.07.04.09.08.07z"/><path d="m72.78 75.01.05.09.08.06-.06-.08z"/><path d="m75.18 73.17-.05-.09-.08-.06.06.08z"/><path d="m75.29 73.33-.04-.09-.07-.07.05.08z"/><path d="m72.67 74.85.04.09.07.07-.05-.08z"/><path d="m72.73 74.93.05.08.07.07z"/><path d="m75.23 73.25-.05-.08-.07-.07z"/><path d="m71.39 72.59-.23-.39-.57-.07.35.46z"/><path d="m76.58 75.59.22.38.58.08-.36-.46z"/><path d="m71.39 72.59h-.45l.27.35.35-.05z"/><path d="m76.58 75.59h.44l-.26-.35-.36.04z"/><path d="m76.36 75.92.44.05-.22-.38h-.35z"/><path d="m71.6 72.26-.44-.06.23.39h.35z"/><path d="m76.12 75.32.11.27h.35l-.18-.31z"/><path d="m71.85 72.86-.11-.27h-.35l.17.3z"/><path d="m76.26 75.03.14.25.36-.04-.22-.28z"/><path d="m71.71 73.15-.15-.26-.35.05.22.28z"/><path d="m71.71 73.15-.28.07.17.23.23-.09z"/><path d="m76.26 75.03.28-.07-.18-.23-.22.09z"/><path d="m76.12 75.32.28-.04-.14-.25-.24.07z"/><path d="m71.85 72.86-.29.03.15.26.23-.07z"/><path d="m75.94 74.9.08.2.24-.07-.12-.21z"/><path d="m72.02 73.28-.08-.2-.23.07.12.21z"/><path d="m71.93 73.54-.1-.18-.23.09.15.2z"/><path d="m76.03 74.64.11.18.22-.09-.15-.2z"/><path d="m76.03 74.64.18-.11-.12-.16-.15.11z"/><path d="m71.93 73.54-.18.11.13.16.15-.11z"/><path d="m72.02 73.28-.19.08.1.18.16-.09z"/><path d="m75.94 74.9.2-.08-.11-.18-.16.09z"/><path d="m72.16 73.6-.07-.15-.16.09.1.16z"/><path d="m75.81 74.58.06.15.16-.09-.09-.16z"/><path d="m75.86 74.34.08.14.15-.11-.12-.15z"/><path d="m72.11 73.84-.08-.14-.15.11.11.15z"/><path d="m75.78 74.21.08.13.11-.12-.1-.13z"/><path d="m72.11 73.84-.12.12.1.13.09-.12z"/><path d="m72.16 73.6-.13.1.08.14.1-.1z"/><path d="m75.81 74.58.13-.1-.08-.14-.11.1z"/><path d="m72.27 73.86-.06-.12-.1.1.07.13z"/><path d="m75.7 74.32.05.12.11-.1-.08-.13z"/><path d="m75.71 74.09.07.12.09-.12-.09-.12z"/><path d="m72.25 74.09-.07-.12-.09.12.09.12z"/><path d="m72.25 74.09-.07.12.09.11.04-.12z"/><path d="m75.71 74.09.07-.12-.08-.11-.05.12z"/><path d="m72.27 73.86-.09.11.07.12.06-.11z"/><path d="m75.65 74.2.05.12.08-.11-.07-.12z"/><path d="m75.61 74.09.04.11.06-.11-.06-.11z"/><path d="m72.36 74.09-.05-.11-.06.11.06.11z"/><path d="m75.59 73.88.06.1.05-.12-.08-.1z"/><path d="m72.37 74.3-.06-.1-.04.12.07.1z"/><path d="m75.59 73.88.03-.12-.07-.09-.01.11z"/><path d="m72.37 74.3-.03.12.07.09.02-.11z"/><path d="m75.61 74.09.04-.11-.06-.1-.03.11z"/><path d="m72.36 74.09-.05.11.06.1.03-.11z"/><path d="m72.44 74.29-.04-.1-.03.11.06.1z"/><path d="m75.52 73.89.04.1.03-.11-.05-.1z"/><path d="m75.48 73.69.06.09.01-.11-.07-.09z"/><path d="m72.48 74.49-.05-.09-.02.11.07.09z"/><path d="m72.48 74.49v.11l.07.08-.02-.1z"/><path d="m75.48 73.69v-.11l-.06-.09.01.11z"/><path d="m75.52 73.89.02-.11-.06-.09v.1z"/><path d="m72.44 74.29-.01.11.05.09v-.1z"/><path d="m75.44 73.7.04.09v-.1l-.05-.09z"/><path d="m72.52 74.48-.04-.09v.1l.05.09z"/><path d="m75.38 73.51.05.09-.01-.11-.07-.08z"/><path d="m72.59 74.67-.06-.09.02.1.06.09z"/><path d="m72.59 74.67.02.1.06.08-.04-.1z"/><path d="m75.38 73.51-.03-.1-.06-.08.04.1z"/><path d="m75.44 73.7-.01-.1-.05-.09.03.1z"/><path d="m72.52 74.48.01.1.06.09-.03-.1z"/><path d="m72.56 74.57.03.1.04.08z"/><path d="m75.41 73.61-.03-.1-.05-.08z"/><path d="m75.94 75.59.07.28.35.05-.13-.33z"/><path d="m72.03 72.59-.08-.28-.35-.05.14.33z"/><path d="m75.94 75.59h.29l-.11-.27-.25.03z"/><path d="m72.03 72.59h-.29l.11.27.24-.03z"/><path d="m72.24 72.35-.29-.04.08.28h.24z"/><path d="m75.73 75.83.28.04-.07-.28h-.25z"/><path d="m75.67 75.38.02.21h.25l-.07-.24z"/><path d="m72.3 72.8-.03-.21h-.24l.06.24z"/><path d="m75.82 75.15.05.2.25-.03-.1-.22z"/><path d="m72.15 73.03-.06-.2-.24.03.09.22z"/><path d="m75.82 75.15.2-.05-.08-.2-.17.07z"/><path d="m72.15 73.03-.21.05.08.2.17-.07z"/><path d="m72.3 72.8-.21.03.06.2.17-.05z"/><path d="m75.67 75.38.2-.03-.05-.2-.18.05z"/><path d="m72.35 73.14-.03-.16-.17.05.04.18z"/><path d="m75.62 75.03.02.17.18-.05-.05-.18z"/><path d="m72.24 73.37-.05-.16-.17.07.07.17z"/><path d="m75.73 74.81.04.16.17-.07-.07-.17z"/><path d="m72.24 73.37-.15.08.07.15.11-.09z"/><path d="m75.73 74.81.14-.08-.06-.15-.12.09z"/><path d="m72.35 73.14-.16.07.05.16.13-.08z"/><path d="m75.62 75.03.15-.06-.04-.16-.13.08z"/><path d="m75.58 74.75.02.14.13-.08-.04-.14z"/><path d="m72.38 73.43-.01-.14-.13.08.03.14z"/><path d="m72.31 73.64-.04-.13-.11.09.05.14z"/><path d="m75.66 74.54.03.13.12-.09-.06-.14z"/><path d="m75.66 74.54.09-.1-.05-.12-.08.1z"/><path d="m72.31 73.64-.1.1.06.12.07-.1z"/><path d="m72.38 73.43-.11.08.04.13.09-.09z"/><path d="m75.58 74.75.11-.08-.03-.13-.09.09z"/><path d="m72.41 73.67-.01-.12-.09.09.03.12z"/><path d="m75.55 74.51.02.12.09-.09-.04-.12z"/><path d="m72.37 73.88-.03-.12-.07.1.04.12z"/><path d="m75.59 74.3.03.12.08-.1-.05-.12z"/><path d="m72.37 73.88-.06.1.05.11.04-.1z"/><path d="m75.56 74.19.03.11.06-.1-.04-.11z"/><path d="m72.41 73.67-.07.09.03.12.06-.1z"/><path d="m75.55 74.51.07-.09-.03-.12-.05.1z"/><path d="m75.52 74.29.02.11.05-.1-.03-.11z"/><path d="m72.44 73.89-.01-.11-.06.1.03.11z"/><path d="m72.43 74.09-.03-.1-.04.1.04.1z"/><path d="m75.54 74.09.02.1.05-.1-.05-.1z"/><path d="m75.54 74.09.02-.1-.04-.1-.01.1z"/><path d="m72.43 74.09-.03.1.04.1.02-.1z"/><path d="m75.51 74.19.01.1.04-.1-.02-.1z"/><path d="m72.44 73.89-.04.1.03.1.03-.1z"/><path d="m75.5 74.09.01.1.03-.1-.03-.1z"/><path d="m72.47 74.09-.01-.1-.03.1.03.1z"/><path d="m75.48 73.89.03.1.01-.1-.04-.1z"/><path d="m72.48 74.29-.02-.1-.02.1.04.1z"/><path d="m75.48 73.89v-.1l-.04-.09.02.1z"/><path d="m72.48 74.29v.1l.04.09-.01-.1z"/><path d="m72.47 74.09-.01.1.02.1v-.1z"/><path d="m75.5 74.09.01-.1-.03-.1v.1z"/><path d="m72.48 74.19v.1l.03.09z"/><path d="m75.48 73.99v-.1l-.02-.09z"/><path d="m75.48 75.59v.21l.25.03-.04-.24z"/><path d="m72.48 72.59v-.21l-.24-.03.03.24z"/><path d="m72.48 72.59h-.21l.03.21.18-.03z"/><path d="m75.48 75.59h.21l-.02-.21-.19.02z"/><path d="m75.27 75.77.21.03v-.21h-.18z"/><path d="m72.69 72.41-.21-.03v.21h.19z"/><path d="m72.65 72.75.02-.16h-.19v.18z"/><path d="m75.32 75.43-.02.16h.18v-.19z"/><path d="m75.48 75.24v.16l.19-.02-.03-.18z"/><path d="m72.48 72.94v-.17l-.18.03.02.18z"/><path d="m72.48 72.94-.16.04.03.16.13-.05z"/><path d="m75.48 75.24.16-.04-.02-.17-.14.06z"/><path d="m72.65 72.75-.17.02v.17l.15-.04z"/><path d="m75.32 75.43.16-.03v-.16l-.14.04z"/><path d="m75.36 75.14-.02.14.14-.04v-.15z"/><path d="m72.61 73.04.02-.14-.15.04v.15z"/><path d="m75.48 74.96v.13l.14-.06-.02-.14z"/><path d="m72.48 73.22v-.13l-.13.05.02.15z"/><path d="m75.48 74.96.12-.07-.02-.14-.1.08z"/><path d="m72.48 73.22-.11.07.01.14.1-.08z"/><path d="m75.36 75.14.12-.05v-.13l-.11.06z"/><path d="m72.61 73.04-.13.05v.13l.11-.06z"/><path d="m75.39 74.9-.02.12.11-.06v-.13z"/><path d="m72.58 73.28.01-.12-.11.06v.13z"/><path d="m75.48 74.71v.12l.1-.08-.01-.12z"/><path d="m72.48 73.47v-.12l-.1.08.02.12z"/><path d="m75.48 74.71.09-.08-.02-.12-.07.09z"/><path d="m72.48 73.47-.08.08.01.12.07-.09z"/><path d="m72.58 73.28-.1.07v.12l.08-.08z"/><path d="m75.39 74.9.09-.07v-.12l-.08.08z"/><path d="m75.42 74.68-.02.11.08-.08v-.11z"/><path d="m72.55 73.5.01-.11-.08.08v.11z"/><path d="m75.48 74.49v.11l.07-.09-.01-.11z"/><path d="m72.48 73.69v-.11l-.07.09.02.11z"/><path d="m75.48 74.49.06-.09-.02-.11-.04.1z"/><path d="m72.48 73.69-.05.09.01.11.04-.1z"/><path d="m75.42 74.68.06-.08v-.11l-.05.09z"/><path d="m72.55 73.5-.07.08v.11l.05-.09z"/><path d="m72.52 73.7.01-.1-.05.09v.1z"/><path d="m75.44 74.48-.01.1.05-.09v-.1z"/><path d="m75.48 74.29v.1l.04-.1-.01-.1z"/><path d="m72.48 73.89v-.1l-.04.1.02.1z"/><path d="m75.48 74.19v.1l.03-.1-.01-.1z"/><path d="m72.48 73.89-.02.1.01.1.01-.1z"/><path d="m72.52 73.7-.04.09v.1l.03-.09z"/><path d="m75.44 74.48.04-.09v-.1l-.02.09z"/><path d="m72.51 73.8-.03.09v.1z"/><path d="m75.46 74.38.02-.09v-.1z"/><path d="m75.13 75.59-.04.16.18.02.03-.18z"/><path d="m72.83 72.59.04-.16-.18-.02-.02.18z"/><path d="m75.13 75.59h.17l.02-.16-.15.02z"/><path d="m72.83 72.59h-.16l-.02.16.14-.02z"/><path d="m73.04 72.45-.17-.02-.04.16h.15z"/><path d="m74.93 75.73.16.02.04-.16h-.14z"/><path d="m75.04 75.46-.05.13h.14l.04-.14z"/><path d="m72.93 72.71.05-.12h-.15l-.04.14z"/><path d="m72.76 72.86.03-.13-.14.02-.02.15z"/><path d="m75.21 75.31-.04.14.15-.02.02-.15z"/><path d="m75.21 75.31.13-.03.02-.14-.12.05z"/><path d="m72.76 72.86-.13.04-.02.14.12-.05z"/><path d="m72.93 72.71-.14.02-.03.13.12-.03z"/><path d="m75.04 75.46.13-.01.04-.14-.12.04z"/><path d="m72.84 72.94.04-.11-.12.03-.03.13z"/><path d="m75.13 75.24-.04.11.12-.04.03-.12z"/><path d="m75.27 75.08-.03.11.12-.05.01-.12z"/><path d="m72.7 73.1.03-.11-.12.05-.02.12z"/><path d="m75.27 75.08.1-.06.02-.12-.09.07z"/><path d="m72.7 73.1-.11.06-.01.12.09-.07z"/><path d="m75.13 75.24.11-.05.03-.11-.1.05z"/><path d="m72.84 72.94-.11.05-.03.11.09-.05z"/><path d="m72.75 73.14.04-.09-.09.05-.03.11z"/><path d="m75.21 75.04-.04.09.1-.05.03-.11z"/><path d="m72.64 73.31.03-.1-.09.07-.02.11z"/><path d="m75.33 74.87-.03.1.09-.07.01-.11z"/><path d="m75.33 74.87.07-.08.02-.11-.07.09z"/><path d="m72.64 73.31-.08.08-.01.11.06-.09z"/><path d="m72.75 73.14-.08.07-.03.1.07-.07z"/><path d="m75.21 75.04.09-.07.03-.1-.07.07z"/><path d="m75.29 74.85-.03.09.07-.07.02-.1z"/><path d="m72.67 73.33.04-.09-.07.07-.03.1z"/><path d="m75.38 74.67-.03.1.07-.09.01-.1z"/><path d="m72.59 73.51.02-.1-.06.09-.02.1z"/><path d="m72.59 73.51-.06.09-.01.1.04-.09z"/><path d="m75.38 74.67.05-.09.01-.1-.03.09z"/><path d="m75.29 74.85.06-.08.03-.1-.05.08z"/><path d="m72.67 73.33-.06.08-.02.1.04-.08z"/><path d="m75.33 74.75.05-.08.03-.1z"/><path d="m72.63 73.43-.04.08-.03.1z"/><path d="m73.12 72.59.07-.12-.15-.02-.06.14z"/><path d="m74.85 75.59-.07.12.15.02.06-.14z"/><path d="m73.12 72.59h-.14l-.05.12.12-.01z"/><path d="m74.85 75.59h.14l.05-.13-.13.02z"/><path d="m73.32 72.49-.13-.02-.07.12h.12z"/><path d="m74.65 75.69.13.02.07-.12h-.13z"/><path d="m73.17 72.68.07-.09h-.12l-.07.11z"/><path d="m74.8 75.5-.08.09h.13l.06-.11z"/><path d="m73 72.8.05-.1-.12.01-.05.12z"/><path d="m74.97 75.38-.06.1.13-.02.05-.11z"/><path d="m73 72.8-.12.03-.04.11.1-.04z"/><path d="m74.97 75.38.12-.03.04-.11-.1.04z"/><path d="m73.17 72.68-.12.02-.05.1.1-.03z"/><path d="m74.8 75.5.11-.02.06-.1-.11.03z"/><path d="m73.04 72.86.06-.09-.1.03-.06.1z"/><path d="m74.93 75.32-.07.09.11-.03.06-.1z"/><path d="m72.89 72.99.05-.09-.1.04-.05.11z"/><path d="m75.08 75.19-.05.09.1-.04.04-.11z"/><path d="m72.89 72.99-.1.06-.04.09.08-.06z"/><path d="m75.08 75.19.09-.06.04-.09-.08.06z"/><path d="m73.04 72.86-.1.04-.05.09.08-.05z"/><path d="m74.93 75.32.1-.04.05-.09-.09.05z"/><path d="m72.91 73.02.06-.08-.08.05-.06.09z"/><path d="m75.05 75.16-.06.08.09-.05.05-.09z"/><path d="m72.78 73.17.05-.09-.08.06-.04.1z"/><path d="m75.18 75.01-.05.09.08-.06.05-.1z"/><path d="m72.78 73.17-.07.07-.04.09.06-.08z"/><path d="m75.18 75.01.08-.07.03-.09-.06.08z"/><path d="m75.05 75.16.08-.06.05-.09-.06.07z"/><path d="m72.91 73.02-.08.06-.05.09.07-.07z"/><path d="m75.12 75.08.06-.07.05-.08z"/><path d="m72.85 73.1-.07.07-.05.08z"/><path d="m74.6 75.59-.08.08.13.02.07-.1z"/><path d="m73.36 72.59.09-.08-.13-.02-.08.1z"/><path d="m73.36 72.59h-.12l-.07.09.11-.01z"/><path d="m74.6 75.59h.12l.08-.09-.12.01z"/><path d="m74.4 75.66.12.01.08-.08h-.11z"/><path d="m73.56 72.52-.11-.01-.09.08h.11z"/><path d="m74.58 75.52-.09.07h.11l.08-.08z"/><path d="m73.39 72.65.08-.06h-.11l-.08.08z"/><path d="m74.76 75.43-.08.08.12-.01.06-.09z"/><path d="m73.21 72.74.07-.07-.11.01-.07.09z"/><path d="m74.76 75.43.1-.02.07-.09-.1.04z"/><path d="m73.21 72.74-.11.03-.06.09.09-.04z"/><path d="m74.58 75.52.1-.01.08-.08-.1.03z"/><path d="m73.39 72.65-.11.02-.07.07.1-.02z"/><path d="m73.23 72.78.08-.06-.1.02-.08.08z"/><path d="m74.74 75.4-.08.06.1-.03.07-.07z"/><path d="m74.9 75.29-.07.07.1-.04.06-.08z"/><path d="m73.06 72.89.07-.07-.09.04-.07.08z"/><path d="m73.06 72.89-.09.05-.06.08.08-.06z"/><path d="m74.9 75.29.09-.05.06-.08-.08.06z"/><path d="m73.23 72.78-.1.04-.07.07.09-.05z"/><path d="m74.74 75.4.09-.04.07-.07-.08.05z"/><path d="m73.15 72.84-.09.05-.07.07z"/><path d="m74.82 75.34.08-.05.07-.07z"/><path d="m74.38 75.59-.09.05.11.02.09-.07z"/><path d="m73.58 72.59.09-.05-.11-.02-.09.07z"/><path d="m74.38 75.59h.11l.09-.07-.11.02z"/><path d="m73.58 72.59h-.11l-.08.06.1-.01z"/><path d="m73.78 72.55-.11-.01-.09.05h.1z"/><path d="m74.19 75.63.1.01.09-.05h-.1z"/><path d="m73.59 72.63.09-.04h-.1l-.09.05z"/><path d="m74.37 75.55-.09.04h.1l.09-.05z"/><path d="m73.41 72.69.08-.05-.1.01-.08.07z"/><path d="m74.56 75.49-.09.05.11-.02.08-.06z"/><path d="m73.41 72.69-.1.03-.08.06.09-.04z"/><path d="m74.56 75.49.1-.03.08-.06-.09.04z"/><path d="m74.37 75.55.1-.01.09-.05-.09.02z"/><path d="m73.59 72.63-.1.01-.08.05.09-.03z"/><path d="m74.47 75.51.09-.02.09-.05z"/><path d="m73.5 72.66-.09.03-.09.05z"/><path d="m74.18 75.59-.1.03.11.01.09-.04z"/><path d="m73.78 72.59.1-.03-.1-.01-.1.04z"/><path d="m74.18 75.59h.1l.09-.04-.09.01z"/><path d="m73.78 72.59h-.1l-.09.04.1-.02z"/><path d="m73.98 75.6.1.02.1-.03h-.1z"/><path d="m73.98 72.58-.1-.02-.1.03h.1z"/><path d="m74.08 75.59h.1l.1-.03z"/><path d="m73.88 72.59h-.1l-.09.02z"/><path d="m74.46 72.66-.09-.03-.09-.01z"/><path d="m73.5 75.51.09.04.1.01z"/><path d="m73.15 75.34.08.06.09.04z"/><path d="m74.82 72.84-.08-.06-.09-.04z"/><path d="m72.85 75.08.06.08.08.06z"/><path d="m75.11 73.1-.06-.08-.08-.06z"/><path d="m75.33 73.43-.04-.1-.06-.08z"/><path d="m72.63 74.75.04.1.06.08z"/><path d="m72.51 74.38.01.1.04.09z"/><path d="m75.46 73.8-.02-.1-.03-.09z"/><path d="m72.48 73.99-.01.1.01.1z"/><path d="m75.48 74.19.02-.1-.02-.1z"/><path d="m72.56 73.61-.04.09-.01.1z"/><path d="m75.41 74.57.03-.09.02-.1z"/><path d="m75.23 74.93.06-.08.04-.1z"/><path d="m72.73 73.25-.06.08-.04.1z"/><path d="m72.99 72.96-.08.06-.06.08z"/><path d="m74.97 75.22.08-.06.07-.08z"/><path d="m74.65 75.44.09-.04.08-.06z"/><path d="m73.32 72.74-.09.04-.08.06z"/><path d="m74.28 75.56.09-.01.1-.04z"/><path d="m73.69 72.61-.1.02-.09.03z"/><path d="m74.08 72.59-.1-.01-.1.01z"/><path d="m73.88 75.59.1.01.1-.01z"/></g><circle cx="73.98" cy="74.09" fill="#fc980f" r="18"/></svg>