<?xml version="1.0" encoding="utf-8"?>
<!-- Generator: Adobe Illustrator 25.0.0, SVG Export Plug-In . SVG Version: 6.00 Build 0)  -->
<svg version="1.1" id="DC" xmlns="http://www.w3.org/2000/svg" xmlns:xlink="http://www.w3.org/1999/xlink" x="0px" y="0px"
	 viewBox="0 0 90.68 88.45" style="enable-background:new 0 0 90.68 88.45;" xml:space="preserve">
<style type="text/css">
	.st0{fill:#B150FF;}
	.st1{fill:#FC980F;}
	.st2{fill:#FFFFFF;stroke:#FFFFFF;stroke-width:1.5;stroke-miterlimit:10;}
	.st3{fill:none;stroke:#90D24A;stroke-width:1.5;stroke-miterlimit:10;}
	.st4{fill:#90D24A;}
	.st5{fill:none;stroke:#B150FF;stroke-width:1.5;stroke-miterlimit:10;}
</style>
<g>
	<path class="st0" d="M8.35,79.78c20.05,0,36.3-16.25,36.3-36.3S28.4,7.19,8.35,7.19"/>
	<path class="st1" d="M8.35,68.83c14,0,25.34-11.35,25.34-25.34S22.35,18.14,8.35,18.14"/>
	<path class="st0" d="M8.35,57.78c7.91,0,14.32-6.4,14.32-14.3s-6.41-14.3-14.32-14.3"/>
	<path class="st2" d="M8.35,47.1c2,0,3.62-1.62,3.62-3.62c0-2-1.62-3.62-3.62-3.62"/>
	<g>
		<path class="st3" d="M8.35,47.1c2,0,3.62-1.62,3.62-3.62c0-2-1.62-3.62-3.62-3.62"/>
		<path class="st3" d="M8.35,65.2c12,0,21.72-9.73,21.72-21.72S20.35,21.76,8.35,21.76"/>
		<path class="st3" d="M8.35,61.58c10,0,18.1-8.1,18.1-18.1s-8.1-18.1-18.1-18.1"/>
		<path class="st3" d="M8.35,57.96c8,0,14.48-6.48,14.48-14.48S16.35,29,8.35,29"/>
		<path class="st3" d="M8.35,54.34c6,0,10.86-4.86,10.86-10.86S14.35,32.62,8.35,32.62"/>
		<path class="st3" d="M8.35,50.72c4,0,7.24-3.24,7.24-7.24s-3.24-7.24-7.24-7.24"/>
		<path class="st3" d="M8.35,76.07c17.99,0,32.58-14.59,32.58-32.58S26.35,10.9,8.35,10.9"/>
		<path class="st3" d="M8.35,72.45c16,0,28.96-12.97,28.96-28.96S24.35,14.52,8.35,14.52"/>
		<path class="st3" d="M8.35,68.83c14,0,25.34-11.35,25.34-25.34S22.35,18.14,8.35,18.14"/>
		<path class="st3" d="M8.35,79.69c19.99,0,36.2-16.21,36.2-36.2S28.35,7.28,8.35,7.28"/>
	</g>
</g>
<g>
	<path class="st4" d="M82.26,7.28c-19.99,0-36.2,16.21-36.2,36.2s16.21,36.2,36.2,36.2"/>
	<path class="st1" d="M82.26,18.14c-14,0-25.34,11.35-25.34,25.34s11.35,25.34,25.34,25.34"/>
	<path class="st4" d="M82.26,29.19c-7.91,0-14.32,6.4-14.32,14.3s6.41,14.3,14.32,14.3"/>
	<path class="st2" d="M82.26,39.86c-2,0-3.62,1.62-3.62,3.62c0,2,1.62,3.62,3.62,3.62"/>
	<g>
		<path class="st5" d="M82.26,39.86c-2,0-3.62,1.62-3.62,3.62c0,2,1.62,3.62,3.62,3.62"/>
		<path class="st5" d="M82.26,21.76c-12,0-21.72,9.73-21.72,21.72S70.26,65.2,82.26,65.2"/>
		<path class="st5" d="M82.26,25.38c-10,0-18.1,8.1-18.1,18.1s8.1,18.1,18.1,18.1"/>
		<path class="st5" d="M82.26,29c-8,0-14.48,6.48-14.48,14.48s6.48,14.48,14.48,14.48"/>
		<path class="st5" d="M82.26,32.62c-6,0-10.86,4.86-10.86,10.86s4.86,10.86,10.86,10.86"/>
		<path class="st5" d="M82.26,36.24c-4,0-7.24,3.24-7.24,7.24s3.24,7.24,7.24,7.24"/>
		<path class="st5" d="M82.26,10.9c-17.99,0-32.58,14.59-32.58,32.58s14.59,32.58,32.58,32.58"/>
		<path class="st5" d="M82.26,14.52c-16,0-28.96,12.97-28.96,28.96s12.97,28.96,28.96,28.96"/>
		<path class="st5" d="M82.26,18.14c-14,0-25.34,11.35-25.34,25.34s11.35,25.34,25.34,25.34"/>
		<path class="st5" d="M82.26,7.28c-19.99,0-36.2,16.21-36.2,36.2s16.21,36.2,36.2,36.2"/>
	</g>
</g>
</svg>
