<?xml version="1.0" encoding="utf-8"?>
<!-- Generator: Adobe Illustrator 25.0.0, SVG Export Plug-In . SVG Version: 6.00 Build 0)  -->
<svg version="1.1" id="DC" xmlns="http://www.w3.org/2000/svg" xmlns:xlink="http://www.w3.org/1999/xlink" x="0px" y="0px"
	 viewBox="0 0 313.3 31.5" style="enable-background:new 0 0 313.3 31.5;" xml:space="preserve">
<style type="text/css">
	.st0{enable-background:new    ;}
	.st1{fill:#662D91;}
</style>
<g>
	<g class="st0">
		<path class="st1" d="M2.5,10.2c0-0.4,0.2-0.8,0.5-1.1c0.3-0.3,0.8-0.5,1.5-0.5c1-0.1,2-0.1,3-0.1h4.6c0.1,0,0.3,0,0.3-0.1
			c0.1-0.1,0.1-0.2,0.1-0.4v-5c0-0.4,0.3-0.7,0.7-0.7h1.7c0.4,0,0.7,0.3,0.7,0.7v16.9c0,0.2,0,0.3,0.3,0.5c0.5,0.3,0.7,0.3,0.7,0.5
			v1.5c0,0.2-0.2,0.4-0.4,0.4H7.4c-1,0-2,0-3-0.1c-0.7-0.1-1.2-0.2-1.5-0.5c-0.3-0.3-0.5-0.7-0.5-1.1V10.2z M5.6,19.2
			c0,0.4,0.2,0.5,0.4,0.5c1.1,0.1,1.3,0.1,2.4,0.1h2.5c0.3,0,0.6,0,1.2,0c0.2,0,0.4-0.1,0.4-0.5v-7.4c0-0.3-0.2-0.5-0.4-0.5
			c-0.4,0-0.8,0-1.2,0H8.4c-1.1,0-1.3,0-2.4,0.1c-0.2,0-0.4,0.2-0.4,0.5V19.2z"/>
		<path class="st1" d="M33.9,22c0,0.4-0.2,0.7-0.7,0.7H22.1c-0.4,0-0.7-0.3-0.7-0.7v-1.5c0-0.4,0.3-0.7,0.7-0.7h3.5
			c0.1,0,0.3,0,0.3-0.1c0.1-0.1,0.1-0.2,0.1-0.4v-7.6c0-0.1,0-0.3-0.1-0.4c-0.1-0.1-0.2-0.1-0.3-0.1h-3.1c-0.4,0-0.7-0.3-0.7-0.7
			V9.1c0-0.4,0.3-0.7,0.7-0.7h6c0.4,0,0.7,0.3,0.7,0.7v10.2c0,0.1,0,0.3,0.1,0.4c0.1,0.1,0.2,0.1,0.3,0.1h3.5c0.4,0,0.7,0.3,0.7,0.7
			V22z M27.2,6.8c-0.9,0-2.7,0-2.7-1.4V3.7c0-1.4,1.7-1.4,2.7-1.4s2.7,0,2.7,1.4v1.8C29.9,6.8,28.1,6.8,27.2,6.8z"/>
		<path class="st1" d="M52.2,26.9c0,0.5-0.1,0.9-0.5,1.2c-0.3,0.3-0.8,0.5-1.5,0.5c-1,0.1-2,0.1-3,0.1h-6.1c-0.5,0-0.7-0.3-0.7-0.7
			v-1.4c0-0.5,0.3-0.7,0.7-0.7h4.9c1.2,0,1.6,0,2.6-0.1c0.3,0,0.5-0.1,0.5-0.6v-2c0-0.1,0-0.3-0.1-0.4c-0.1-0.1-0.2-0.1-0.3-0.1H44
			c-1,0-2,0-3-0.1c-0.7-0.1-1.2-0.2-1.5-0.5c-0.3-0.3-0.5-0.7-0.5-1.1V10.2c0-0.4,0.2-0.8,0.5-1.1s0.8-0.5,1.5-0.5
			c1-0.1,2-0.1,3-0.1h3.3c1,0,2,0,3,0.1c0.7,0.1,1.2,0.2,1.5,0.5s0.5,0.7,0.5,1.1V26.9z M42.2,19.3c0,0.3,0.2,0.4,0.4,0.5
			c1.1,0.1,1.3,0.1,2.4,0.1h2.5c0.4,0,0.8,0,1.2,0c0.2,0,0.4-0.2,0.4-0.5v-7.4c0-0.4-0.2-0.5-0.4-0.5c-0.6,0-0.9,0-1.2,0H45
			c-1.1,0-1.3,0-2.4,0.1c-0.2,0-0.4,0.1-0.4,0.5V19.3z"/>
		<path class="st1" d="M70.6,22c0,0.4-0.2,0.7-0.7,0.7H58.9c-0.4,0-0.7-0.3-0.7-0.7v-1.5c0-0.4,0.3-0.7,0.7-0.7h3.5
			c0.1,0,0.3,0,0.3-0.1c0.1-0.1,0.1-0.2,0.1-0.4v-7.6c0-0.1,0-0.3-0.1-0.4c-0.1-0.1-0.2-0.1-0.3-0.1h-3.1c-0.4,0-0.7-0.3-0.7-0.7
			V9.1c0-0.4,0.3-0.7,0.7-0.7h6c0.4,0,0.7,0.3,0.7,0.7v10.2c0,0.1,0,0.3,0.1,0.4c0.1,0.1,0.2,0.1,0.3,0.1H70c0.4,0,0.7,0.3,0.7,0.7
			V22z M64,6.8c-0.9,0-2.7,0-2.7-1.4V3.7c0-1.4,1.7-1.4,2.7-1.4s2.7,0,2.7,1.4v1.8C66.7,6.8,64.9,6.8,64,6.8z"/>
		<path class="st1" d="M87.9,20.9c0,0.7-0.2,1.1-0.5,1.3c-0.3,0.3-0.8,0.4-1.4,0.5c-0.6,0.1-1.7,0.1-2.4,0.1c-0.6,0-2.2,0-2.9-0.1
			c-0.7-0.1-1.2-0.2-1.5-0.5c-0.3-0.3-0.4-0.6-0.4-1.2v-9.2c0-0.3-0.2-0.5-0.5-0.5h-2.1c-0.3,0-0.7-0.3-0.7-0.6V9.1
			c0-0.4,0.3-0.7,0.7-0.7h2.1c0.3,0,0.5-0.2,0.5-0.5V2.9c0-0.4,0.3-0.7,0.6-0.7h1.8c0.3,0,0.6,0.3,0.6,0.7v5.1
			c0,0.3,0.2,0.5,0.5,0.5h4.4c0.4,0,0.7,0.3,0.7,0.7v1.6c0,0.3-0.3,0.6-0.7,0.6h-4.5c-0.3,0-0.5,0.1-0.5,0.5v7.6
			c0,0.5,0.2,0.6,0.5,0.7c0.2,0.1,0.6,0.1,1,0.1c0.4,0,0.9,0,1-0.1c0.3,0,0.4-0.2,0.5-0.6l0.4-1.8c0.1-0.3,0.1-0.5,0.5-0.5h1.6
			c0.3,0,0.5,0.2,0.5,0.5V20.9z"/>
		<path class="st1" d="M107.9,22.2c0,0.3-0.2,0.5-0.4,0.5h-8.4c-1,0-2,0-3-0.1c-0.7-0.1-1.2-0.2-1.5-0.5s-0.5-0.5-0.5-1.3v-4.6
			c0-0.5,0.2-0.9,0.5-1.1c0.6-0.6,3.6-1,4-1l4.4-0.4c0.5-0.1,0.7-0.3,0.7-0.7v-0.8c0-0.3,0-0.5-0.1-0.6c-0.1-0.2-0.4-0.2-0.8-0.2
			c-0.7,0-1-0.1-1.9-0.1h-0.5c-0.8,0-1.6,0-2.6,0.1c-0.3,0-0.4,0.2-0.5,0.5l-0.5,1.2c-0.1,0.2-0.1,0.4-0.5,0.4H95
			c-0.4,0-0.5-0.1-0.5-0.5v-2.7c0-0.5,0.2-0.9,0.4-1.2c0.3-0.3,0.8-0.5,1.5-0.5c1-0.1,2-0.1,3-0.1h2.7c1,0,2,0,3,0.1
			c0.7,0.1,1.2,0.2,1.5,0.6c0.3,0.3,0.4,0.7,0.4,1.3v9.2c0,0.3,0,0.4,0.3,0.6c0.5,0.3,0.7,0.3,0.7,0.6V22.2z M103.8,16.7
			c0-0.2-0.1-0.4-0.4-0.4c-0.3,0-0.6,0-0.9,0.1L97.9,17c-0.4,0.1-0.6,0.2-0.6,0.7v1.4c0,0.6,0.1,0.6,0.7,0.7c1,0.1,1.4,0.1,2.5,0.1
			h0.9c0.4,0,1.4,0,1.9,0c0.4,0,0.5-0.2,0.5-0.5V16.7z"/>
		<path class="st1" d="M125.8,22c0,0.4-0.3,0.7-0.7,0.7h-11.1c-0.4,0-0.7-0.3-0.7-0.7v-1.5c0-0.4,0.3-0.7,0.7-0.7h3.5
			c0.1,0,0.3,0,0.3-0.1c0.1-0.1,0.1-0.2,0.1-0.4V5.9c0-0.1,0-0.3-0.1-0.4c-0.1-0.1-0.2-0.1-0.3-0.1h-3.1c-0.4,0-0.7-0.3-0.7-0.6V3.2
			c0-0.4,0.3-0.7,0.7-0.7h6c0.4,0,0.7,0.3,0.7,0.7v16.1c0,0.1,0,0.3,0.1,0.4c0.1,0.1,0.2,0.1,0.3,0.1h3.5c0.4,0,0.7,0.3,0.7,0.7V22z
			"/>
		<path class="st1" d="M162.3,21c0,0.5-0.2,0.9-0.5,1.2s-0.8,0.5-1.5,0.5c-1,0.1-2,0.1-3,0.1h-2.7c-1,0-2,0-3-0.1
			c-0.7-0.1-1.2-0.2-1.5-0.5c-0.3-0.3-0.4-0.6-0.4-1.2V10.2c0-0.4,0.2-0.8,0.4-1.1c0.3-0.3,0.8-0.5,1.5-0.5c1-0.1,2-0.1,3-0.1h2.7
			c1,0,2,0,3,0.1c0.7,0.1,1.2,0.2,1.5,0.5s0.5,0.6,0.5,1.2v3.3c0,0.2,0,0.3-0.1,0.3c-0.1,0.1-0.2,0.1-0.3,0.1h-1.7
			c-0.3,0-0.4-0.2-0.5-0.4l-0.5-1.8c-0.1-0.3-0.3-0.4-0.5-0.5c-0.7-0.1-1.4-0.1-2.2-0.1h-0.9c-1.1,0-1.5,0-2.4,0.1
			c-0.3,0-0.4,0.2-0.4,0.5v7.5c0,0.4,0.2,0.5,0.4,0.5c0.7,0.1,1.5,0.1,2.4,0.1h0.9c0.9,0,1.3,0,2.3-0.1c0.2,0,0.4-0.2,0.5-0.5l0.5-2
			c0.1-0.2,0.2-0.2,0.4-0.2h1.7c0.2,0,0.3,0.1,0.4,0.1c0.1,0.1,0.1,0.2,0.1,0.3V21z"/>
		<path class="st1" d="M181.4,14.2c0,0.1,0,0.2-0.1,0.3c-0.1,0.1-0.2,0.1-0.3,0.1h-1.9c-0.2,0-0.3-0.2-0.4-0.4l-0.5-2.4
			c-0.1-0.3-0.2-0.4-0.5-0.5c-1.1-0.1-1.1-0.1-2.2-0.1h-0.4c-0.4,0-0.5,0.2-0.5,0.5v7.5c0,0.4,0.2,0.5,0.6,0.5h3.4
			c0.5,0,0.7,0.2,0.7,0.7V22c0,0.4-0.2,0.7-0.7,0.7h-10.2c-0.5,0-0.7-0.2-0.7-0.7v-1.5c0-0.4,0.3-0.7,0.7-0.7h2.7
			c0.3,0,0.5-0.1,0.5-0.5v-7.5c0-0.3-0.2-0.5-0.5-0.5h-2.7c-0.5,0-0.7-0.2-0.7-0.7V9.2c0-0.5,0.2-0.7,0.7-0.7h8.2c1,0,2,0,3,0.1
			c0.7,0.1,1.2,0.2,1.6,0.6c0.2,0.3,0.3,0.6,0.3,1.2V14.2z"/>
		<path class="st1" d="M199.4,22c0,0.4-0.2,0.7-0.7,0.7h-11.1c-0.4,0-0.7-0.3-0.7-0.7v-1.5c0-0.4,0.3-0.7,0.7-0.7h3.5
			c0.1,0,0.3,0,0.3-0.1c0.1-0.1,0.1-0.2,0.1-0.4v-7.6c0-0.1,0-0.3-0.1-0.4c-0.1-0.1-0.2-0.1-0.3-0.1H188c-0.4,0-0.7-0.3-0.7-0.7V9.1
			c0-0.4,0.3-0.7,0.7-0.7h6c0.4,0,0.7,0.3,0.7,0.7v10.2c0,0.1,0,0.3,0.1,0.4c0.1,0.1,0.2,0.1,0.3,0.1h3.5c0.4,0,0.7,0.3,0.7,0.7V22z
			 M192.7,6.8c-0.9,0-2.7,0-2.7-1.4V3.7c0-1.4,1.7-1.4,2.7-1.4s2.7,0,2.7,1.4v1.8C195.4,6.8,193.7,6.8,192.7,6.8z"/>
		<path class="st1" d="M216.6,20.9c0,0.7-0.2,1.1-0.5,1.3c-0.3,0.3-0.8,0.4-1.4,0.5c-0.6,0.1-1.7,0.1-2.4,0.1c-0.6,0-2.2,0-2.9-0.1
			c-0.7-0.1-1.2-0.2-1.5-0.5c-0.3-0.3-0.4-0.6-0.4-1.2v-9.2c0-0.3-0.2-0.5-0.5-0.5H205c-0.3,0-0.7-0.3-0.7-0.6V9.1
			c0-0.4,0.3-0.7,0.7-0.7h2.1c0.3,0,0.5-0.2,0.5-0.5V2.9c0-0.4,0.3-0.7,0.6-0.7h1.8c0.3,0,0.6,0.3,0.6,0.7v5.1
			c0,0.3,0.2,0.5,0.5,0.5h4.4c0.4,0,0.7,0.3,0.7,0.7v1.6c0,0.3-0.3,0.6-0.7,0.6h-4.5c-0.3,0-0.5,0.1-0.5,0.5v7.6
			c0,0.5,0.2,0.6,0.5,0.7c0.2,0.1,0.6,0.1,1,0.1c0.4,0,0.9,0,1-0.1c0.3,0,0.4-0.2,0.5-0.6l0.4-1.8c0.1-0.3,0.1-0.5,0.5-0.5h1.6
			c0.3,0,0.5,0.2,0.5,0.5V20.9z"/>
		<path class="st1" d="M236.2,22c0,0.4-0.2,0.7-0.7,0.7h-11.1c-0.4,0-0.7-0.3-0.7-0.7v-1.5c0-0.4,0.3-0.7,0.7-0.7h3.5
			c0.1,0,0.3,0,0.3-0.1c0.1-0.1,0.1-0.2,0.1-0.4v-7.6c0-0.1,0-0.3-0.1-0.4c-0.1-0.1-0.2-0.1-0.3-0.1h-3.1c-0.4,0-0.7-0.3-0.7-0.7
			V9.1c0-0.4,0.3-0.7,0.7-0.7h6c0.4,0,0.7,0.3,0.7,0.7v10.2c0,0.1,0,0.3,0.1,0.4c0.1,0.1,0.2,0.1,0.3,0.1h3.5c0.4,0,0.7,0.3,0.7,0.7
			V22z M229.5,6.8c-0.9,0-2.7,0-2.7-1.4V3.7c0-1.4,1.7-1.4,2.7-1.4s2.7,0,2.7,1.4v1.8C232.2,6.8,230.4,6.8,229.5,6.8z"/>
		<path class="st1" d="M254.3,21c0,0.5-0.2,0.9-0.5,1.2s-0.8,0.5-1.5,0.5c-1,0.1-2,0.1-3,0.1h-2.7c-1,0-2,0-3-0.1
			c-0.7-0.1-1.2-0.2-1.5-0.5c-0.3-0.3-0.4-0.6-0.4-1.2V10.2c0-0.4,0.2-0.8,0.4-1.1c0.3-0.3,0.8-0.5,1.5-0.5c1-0.1,2-0.1,3-0.1h2.7
			c1,0,2,0,3,0.1c0.7,0.1,1.2,0.2,1.5,0.5s0.5,0.6,0.5,1.2v3.3c0,0.2,0,0.3-0.1,0.3c-0.1,0.1-0.2,0.1-0.3,0.1h-1.7
			c-0.3,0-0.4-0.2-0.5-0.4l-0.5-1.8c-0.1-0.3-0.3-0.4-0.5-0.5c-0.7-0.1-1.4-0.1-2.2-0.1h-0.9c-1.1,0-1.5,0-2.4,0.1
			c-0.3,0-0.4,0.2-0.4,0.5v7.5c0,0.4,0.2,0.5,0.4,0.5c0.7,0.1,1.5,0.1,2.4,0.1h0.9c0.9,0,1.3,0,2.3-0.1c0.2,0,0.4-0.2,0.5-0.5l0.5-2
			c0.1-0.2,0.2-0.2,0.4-0.2h1.7c0.2,0,0.3,0.1,0.4,0.1c0.1,0.1,0.1,0.2,0.1,0.3V21z"/>
		<path class="st1" d="M272.9,22c0,0.4-0.2,0.7-0.7,0.7h-11.1c-0.4,0-0.7-0.3-0.7-0.7v-1.5c0-0.4,0.3-0.7,0.7-0.7h3.5
			c0.1,0,0.3,0,0.3-0.1c0.1-0.1,0.1-0.2,0.1-0.4v-7.6c0-0.1,0-0.3-0.1-0.4c-0.1-0.1-0.2-0.1-0.3-0.1h-3.1c-0.4,0-0.7-0.3-0.7-0.7
			V9.1c0-0.4,0.3-0.7,0.7-0.7h6c0.4,0,0.7,0.3,0.7,0.7v10.2c0,0.1,0,0.3,0.1,0.4c0.1,0.1,0.2,0.1,0.3,0.1h3.5c0.4,0,0.7,0.3,0.7,0.7
			V22z M266.3,6.8c-0.9,0-2.7,0-2.7-1.4V3.7c0-1.4,1.7-1.4,2.7-1.4s2.7,0,2.7,1.4v1.8C269,6.8,267.2,6.8,266.3,6.8z"/>
		<path class="st1" d="M291.1,12.8c0,0.5-0.3,0.5-0.7,0.5h-1.1c-0.3,0-0.5-0.1-0.6-0.4l-0.4-1.1c-0.1-0.3-0.3-0.5-0.6-0.6
			c-0.9-0.1-1.4-0.1-2.1-0.1h-1.1c-0.9,0-1.5,0-2.3,0.1c-0.4,0-0.5,0.2-0.5,0.5v1.6c0,0.3,0.1,0.5,0.5,0.5c0.8,0.1,1.2,0.1,2.3,0.1
			h1.8c1,0,2,0,3,0.1c0.7,0.1,1.2,0.2,1.5,0.5s0.5,0.6,0.5,1.2v5.2c0,0.4-0.2,0.8-0.5,1.1s-0.8,0.5-1.5,0.5c-1,0.1-2,0.1-3,0.1h-2.6
			c-1,0-2,0-3-0.1c-0.7-0.1-1.2-0.2-1.5-0.5s-0.5-0.6-0.5-1.2v-3c0-0.3,0.1-0.4,0.4-0.4h1.5c0.3,0,0.4,0.1,0.5,0.4l0.5,1.5
			c0.1,0.3,0.1,0.4,0.5,0.5c0.7,0.1,1.1,0.1,2.2,0.1h1.1c1.1,0,1.4,0,2.4-0.1c0.2,0,0.4-0.2,0.4-0.5v-2c0-0.3-0.2-0.5-0.4-0.5
			c-0.9-0.1-1.3-0.1-2.4-0.1h-1.8c-1,0-2.1,0-3-0.1c-0.5,0-1-0.2-1.3-0.5c-0.3-0.3-0.5-0.7-0.5-1.2v-4.9c0-0.4,0.2-0.8,0.5-1.1
			s0.8-0.5,1.5-0.5c1-0.1,2-0.1,3-0.1h2.6c1,0,2,0,3,0.1c0.7,0.1,1.2,0.2,1.5,0.5s0.5,0.5,0.5,1.3V12.8z"/>
		<path class="st1" d="M310.7,22.3c0,0.4-0.3,0.7-0.7,0.7h-1.5c-0.4,0-0.7-0.3-0.7-0.7V11.9c0-0.4-0.2-0.5-0.5-0.6
			c-0.4,0-0.5,0-0.9,0c-0.3,0-0.5,0-1,0c-0.4,0-0.5,0.2-0.5,0.6v10.4c0,0.4-0.3,0.7-0.7,0.7h-1.5c-0.4,0-0.7-0.3-0.7-0.7V11.8
			c0-0.3-0.1-0.5-0.5-0.5c-0.5,0-0.7,0-1,0c-0.2,0-0.5,0-1,0c-0.2,0-0.4,0.2-0.4,0.5v10.5c0,0.4-0.3,0.7-0.7,0.7h-1.5
			c-0.4,0-0.7-0.3-0.7-0.7V11.5c0-0.2,0-0.3-0.3-0.5l-0.2-0.1c-0.4-0.2-0.5-0.2-0.5-0.5V8.8c0-0.2,0.1-0.4,0.4-0.4h4.6
			c1,0,2.4,0,2.8,0.5c0.2,0.2,0.3,0.4,0.4,0.6c0.1-0.2,0.2-0.5,0.4-0.6c0.5-0.5,1.8-0.5,2.8-0.5h1c0.9,0,1.9,0,2.5,0.6
			c0.3,0.3,0.5,0.7,0.5,1.1V22.3z"/>
	</g>
</g>
</svg>
