<svg enable-background="new 0 0 221.72 222.2" viewBox="0 0 221.72 222.2" xmlns="http://www.w3.org/2000/svg"><g fill="#90d24a"><path d="m219.57 108.28c-.21-7.62-1.2-15.03-2.9-22.18l-82.78 22.18z"/><path d="m215.12 80.3c-2.15-7.23-5.03-14.15-8.56-20.67l-74.22 42.85z"/><path d="m185.68 32.46c-5.41-5.13-11.36-9.7-17.74-13.63l-42.84 74.21z"/><path d="m162.76 15.82c-6.52-3.53-13.44-6.41-20.67-8.57l-22.19 82.79z"/><path d="m203.55 54.44c-3.93-6.38-8.5-12.32-13.63-17.74l-60.59 60.59z"/><path d="m136.29 5.7c-7.15-1.7-14.57-2.7-22.18-2.9v85.69z"/><path d="m15.63 59.61c-3.53 6.52-6.41 13.44-8.57 20.68l82.81 22.19z"/><path d="m18.63 168.13c3.93 6.38 8.51 12.33 13.63 17.74l60.61-60.61z"/><path d="m206.56 162.92c3.53-6.52 6.41-13.44 8.56-20.67l-82.79-22.18z"/><path d="m85.92 216.87c7.15 1.7 14.57 2.69 22.19 2.9v-85.7z"/><path d="m7.06 142.26c2.15 7.24 5.03 14.16 8.57 20.68l74.25-42.87z"/><path d="m167.95 203.73c6.38-3.93 12.32-8.5 17.74-13.63l-60.59-60.59z"/><path d="m59.45 206.76c6.52 3.53 13.44 6.41 20.68 8.56l22.19-82.81z"/><path d="m36.51 190.12c5.42 5.13 11.36 9.7 17.75 13.63l42.86-74.24z"/><path d="m189.93 185.86c5.12-5.42 9.7-11.36 13.63-17.74l-74.22-42.85z"/><path d="m133.9 114.28 82.78 22.18c1.7-7.15 2.69-14.56 2.9-22.18z"/><path d="m32.27 36.68c-5.13 5.42-9.7 11.36-13.63 17.74l74.24 42.86z"/><path d="m54.26 18.81c-6.38 3.93-12.33 8.5-17.75 13.63l60.6 60.6z"/><path d="m5.51 86.09c-1.7 7.15-2.7 14.57-2.9 22.19h85.72z"/><path d="m108.11 2.8c-7.62.2-15.04 1.2-22.19 2.89l22.18 82.8v-85.69z"/><path d="m80.13 7.24c-7.24 2.15-14.16 5.03-20.68 8.56l42.86 74.24z"/><path d="m142.09 215.31c7.23-2.15 14.16-5.03 20.67-8.57l-42.86-74.23z"/><path d="m114.11 219.77c7.62-.21 15.04-1.2 22.19-2.9l-22.19-82.8z"/><path d="m2.6 114.28c.21 7.62 1.2 15.04 2.9 22.19l82.81-22.19z"/></g><circle cx="111.09" cy="111.28" fill="none" r="72.58" stroke="#fc980f" stroke-miterlimit="10" stroke-width="20"/><path d="m219.57 114.28c.03-1 .04-1.99.04-3s-.02-2.01-.04-3h-85.68l82.78-22.18c-.46-1.95-.98-3.89-1.55-5.8l-82.78 22.18 74.22-42.85c-.95-1.76-1.96-3.49-3.01-5.19l-74.21 42.85 60.59-60.59c-1.37-1.45-2.79-2.87-4.24-4.24l-60.59 60.58 42.85-74.21c-1.7-1.05-3.43-2.05-5.19-3.01l-42.86 74.22 22.18-82.79c-.43-.13-.86-.26-1.29-.38l-2.87-.77c-.54-.14-1.08-.27-1.63-.4l-22.18 82.79v-85.69c-1-.03-2.01-.04-3.02-.04-1 0-1.99.02-2.98.04v85.69l-22.19-82.8c-.41.1-.83.2-1.24.3l-3.65.98c-.3.09-.61.18-.91.27l22.19 82.8-42.86-74.24c-.42.23-.84.47-1.26.7l-2.61 1.51c-.44.26-.89.53-1.32.8l42.86 74.23-60.6-60.6c-.64.6-1.26 1.21-1.89 1.83l-.55.55c-.61.61-1.21 1.23-1.8 1.86l60.6 60.6-74.24-42.86c-.13.21-.26.41-.39.62l-2.25 3.9c-.12.23-.25.45-.37.67l74.25 42.87-82.82-22.19c-.03.11-.07.23-.1.34l-1.33 4.98c-.04.16-.08.32-.12.47l82.82 22.19h-85.73c-.02.64-.02 1.27-.03 1.91v2.19c.01.63.01 1.27.03 1.9h85.72l-82.81 22.2c.03.12.06.25.09.37l1.39 5.2c.02.08.05.15.07.23l82.82-22.19-74.25 42.87.21.39 2.51 4.34c.09.15.19.31.29.46l74.24-42.86-60.61 60.61c.46.48.92.96 1.38 1.43l1.41 1.41c.48.47.96.94 1.45 1.4l60.61-60.61-42.86 74.24c.2.12.39.25.59.37l3.91 2.26.69.39 42.87-74.25-22.19 82.81c.19.06.39.12.58.17l4.38 1.17c.28.07.55.14.83.2l22.19-82.8v85.7c.99.03 1.98.04 2.98.04 1.01 0 2.02-.02 3.02-.04v-85.7l22.19 82.8c.41-.1.81-.2 1.22-.3l3.61-.97c.32-.09.64-.19.96-.29l-22.19-82.8 42.86 74.23c.62-.34 1.24-.69 1.86-1.04l1.14-.66c.74-.43 1.47-.87 2.19-1.32l-42.85-74.22 60.59 60.59c1.45-1.38 2.87-2.79 4.24-4.24l-60.59-60.59 74.22 42.85c1.05-1.7 2.05-3.43 3.01-5.19l-74.23-42.85 82.79 22.18c.57-1.91 1.09-3.84 1.55-5.8l-82.78-22.18z" fill="#b150ff"/><circle cx="111.09" cy="111.28" fill="#fc980f" r="18.39"/><circle cx="111.09" cy="111.28" fill="none" r="72.58" stroke="#fc980f" stroke-miterlimit="10" stroke-width="20"/><g fill="#90d24a"><path d="m219.57 108.28c-.21-7.62-1.2-15.03-2.9-22.18l-82.78 22.18z"/><path d="m215.12 80.3c-2.15-7.23-5.03-14.15-8.56-20.67l-74.22 42.85z"/><path d="m185.68 32.46c-5.41-5.13-11.36-9.7-17.74-13.63l-42.84 74.21z"/><path d="m162.76 15.82c-6.52-3.53-13.44-6.41-20.67-8.57l-22.19 82.79z"/><path d="m203.55 54.44c-3.93-6.38-8.5-12.32-13.63-17.74l-60.59 60.59z"/><path d="m136.29 5.7c-7.15-1.7-14.57-2.7-22.18-2.9v85.69z"/><path d="m15.63 59.61c-3.53 6.52-6.41 13.44-8.57 20.68l82.81 22.19z"/><path d="m18.63 168.13c3.93 6.38 8.51 12.33 13.63 17.74l60.61-60.61z"/><path d="m206.56 162.92c3.53-6.52 6.41-13.44 8.56-20.67l-82.79-22.18z"/><path d="m85.92 216.87c7.15 1.7 14.57 2.69 22.19 2.9v-85.7z"/><path d="m7.06 142.26c2.15 7.24 5.03 14.16 8.57 20.68l74.25-42.87z"/><path d="m167.95 203.73c6.38-3.93 12.32-8.5 17.74-13.63l-60.59-60.59z"/><path d="m59.45 206.76c6.52 3.53 13.44 6.41 20.68 8.56l22.19-82.81z"/><path d="m36.51 190.12c5.42 5.13 11.36 9.7 17.75 13.63l42.86-74.24z"/><path d="m189.93 185.86c5.12-5.42 9.7-11.36 13.63-17.74l-74.22-42.85z"/><path d="m133.9 114.28 82.78 22.18c1.7-7.15 2.69-14.56 2.9-22.18z"/><path d="m32.27 36.68c-5.13 5.42-9.7 11.36-13.63 17.74l74.24 42.86z"/><path d="m54.26 18.81c-6.38 3.93-12.33 8.5-17.75 13.63l60.6 60.6z"/><path d="m5.51 86.09c-1.7 7.15-2.7 14.57-2.9 22.19h85.72z"/><path d="m108.11 2.8c-7.62.2-15.04 1.2-22.19 2.89l22.18 82.8v-85.69z"/><path d="m80.13 7.24c-7.24 2.15-14.16 5.03-20.68 8.56l42.86 74.24z"/><path d="m142.09 215.31c7.23-2.15 14.16-5.03 20.67-8.57l-42.86-74.23z"/><path d="m114.11 219.77c7.62-.21 15.04-1.2 22.19-2.9l-22.19-82.8z"/><path d="m2.6 114.28c.21 7.62 1.2 15.04 2.9 22.19l82.81-22.19z"/></g></svg>