<svg enable-background="new 0 0 221.72 222.2" viewBox="0 0 221.72 222.2" xmlns="http://www.w3.org/2000/svg"><circle cx="111.09" cy="111.28" fill="none" r="72.58" stroke="#fc980f" stroke-miterlimit="10" stroke-width="20"/><g fill="#b150ff"><path d="m219.57 108.28c-.21-7.62-1.2-15.03-2.9-22.18l-82.78 22.18z"/><path d="m215.12 80.3c-2.15-7.23-5.03-14.15-8.56-20.67l-74.22 42.85z"/><path d="m185.68 32.46c-5.41-5.13-11.36-9.7-17.74-13.63l-42.84 74.21z"/><path d="m162.76 15.82c-6.52-3.53-13.44-6.41-20.67-8.57l-22.19 82.79z"/><path d="m203.55 54.44c-3.93-6.38-8.5-12.32-13.63-17.74l-60.59 60.59z"/><path d="m136.29 5.7c-7.15-1.7-14.57-2.7-22.18-2.9v85.69z"/><path d="m15.63 59.61c-3.53 6.52-6.41 13.44-8.57 20.68l82.81 22.19z"/><path d="m18.63 168.13c3.93 6.38 8.51 12.33 13.63 17.74l60.61-60.61z"/><path d="m206.56 162.92c3.53-6.52 6.41-13.44 8.56-20.67l-82.79-22.18z"/><path d="m85.92 216.87c7.15 1.7 14.57 2.69 22.19 2.9v-85.7z"/><path d="m7.06 142.26c2.15 7.24 5.03 14.16 8.57 20.68l74.25-42.87z"/><path d="m167.95 203.73c6.38-3.93 12.32-8.5 17.74-13.63l-60.59-60.59z"/><path d="m59.45 206.76c6.52 3.53 13.44 6.41 20.68 8.56l22.19-82.81z"/><path d="m36.51 190.12c5.42 5.13 11.36 9.7 17.75 13.63l42.86-74.24z"/><path d="m189.93 185.86c5.12-5.42 9.7-11.36 13.63-17.74l-74.22-42.85z"/><path d="m133.9 114.28 82.78 22.18c1.7-7.15 2.69-14.56 2.9-22.18z"/><path d="m32.27 36.68c-5.13 5.42-9.7 11.36-13.63 17.74l74.24 42.86z"/><path d="m54.26 18.81c-6.38 3.93-12.33 8.5-17.75 13.63l60.6 60.6z"/><path d="m5.51 86.09c-1.7 7.15-2.7 14.57-2.9 22.19h85.72z"/><path d="m108.11 2.8c-7.62.2-15.04 1.2-22.19 2.89l22.18 82.8v-85.69z"/><path d="m80.13 7.24c-7.24 2.15-14.16 5.03-20.68 8.56l42.86 74.24z"/><path d="m142.09 215.31c7.23-2.15 14.16-5.03 20.67-8.57l-42.86-74.23z"/><path d="m114.11 219.77c7.62-.21 15.04-1.2 22.19-2.9l-22.19-82.8z"/><path d="m2.6 114.28c.21 7.62 1.2 15.04 2.9 22.19l82.81-22.19z"/></g><circle cx="111.09" cy="111.28" fill="#fc980f" r="18.39"/></svg>