<?xml version="1.0" encoding="utf-8"?>
<!-- Generator: Adobe Illustrator 25.0.0, SVG Export Plug-In . SVG Version: 6.00 Build 0)  -->
<svg version="1.1" id="Umbrella" xmlns="http://www.w3.org/2000/svg" xmlns:xlink="http://www.w3.org/1999/xlink" x="0px" y="0px"
	 viewBox="0 0 221.72 222.2" style="enable-background:new 0 0 221.72 222.2;" xml:space="preserve">
<style type="text/css">
	.st0{fill:none;stroke:#FC980F;stroke-width:20;stroke-miterlimit:10;}
	.st1{fill:#B150FF;}
	.st2{display:none;fill:#90D24A;}
	.st3{fill:#FC980F;}
</style>
<circle class="st0" cx="111.09" cy="111.28" r="72.58"/>
<g>
	<path class="st1" d="M219.57,108.28c-0.21-7.62-1.2-15.03-2.9-22.18l-82.78,22.18H219.57z"/>
	<path class="st1" d="M215.12,80.3c-2.15-7.23-5.03-14.15-8.56-20.67l-74.22,42.85L215.12,80.3z"/>
	<path class="st1" d="M185.68,32.46c-5.41-5.13-11.36-9.7-17.74-13.63L125.1,93.04L185.68,32.46z"/>
	<path class="st1" d="M162.76,15.82c-6.52-3.53-13.44-6.41-20.67-8.57L119.9,90.04L162.76,15.82z"/>
	<path class="st1" d="M203.55,54.44c-3.93-6.38-8.5-12.32-13.63-17.74l-60.59,60.59L203.55,54.44z"/>
	<path class="st1" d="M136.29,5.7c-7.15-1.7-14.57-2.7-22.18-2.9v85.69L136.29,5.7z"/>
	<path class="st1" d="M15.63,59.61c-3.53,6.52-6.41,13.44-8.57,20.68l82.81,22.19L15.63,59.61z"/>
	<path class="st1" d="M18.63,168.13c3.93,6.38,8.51,12.33,13.63,17.74l60.61-60.61L18.63,168.13z"/>
	<path class="st1" d="M206.56,162.92c3.53-6.52,6.41-13.44,8.56-20.67l-82.79-22.18L206.56,162.92z"/>
	<path class="st1" d="M85.92,216.87c7.15,1.7,14.57,2.69,22.19,2.9v-85.7L85.92,216.87z"/>
	<path class="st1" d="M7.06,142.26c2.15,7.24,5.03,14.16,8.57,20.68l74.25-42.87L7.06,142.26z"/>
	<path class="st1" d="M167.95,203.73c6.38-3.93,12.32-8.5,17.74-13.63l-60.59-60.59L167.95,203.73z"/>
	<path class="st1" d="M59.45,206.76c6.52,3.53,13.44,6.41,20.68,8.56l22.19-82.81L59.45,206.76z"/>
	<path class="st1" d="M36.51,190.12c5.42,5.13,11.36,9.7,17.75,13.63l42.86-74.24L36.51,190.12z"/>
	<path class="st1" d="M189.93,185.86c5.12-5.42,9.7-11.36,13.63-17.74l-74.22-42.85L189.93,185.86z"/>
	<path class="st1" d="M133.9,114.28l82.78,22.18c1.7-7.15,2.69-14.56,2.9-22.18H133.9z"/>
	<path class="st1" d="M32.27,36.68c-5.13,5.42-9.7,11.36-13.63,17.74l74.24,42.86L32.27,36.68z"/>
	<path class="st1" d="M54.26,18.81c-6.38,3.93-12.33,8.5-17.75,13.63l60.6,60.6L54.26,18.81z"/>
	<path class="st1" d="M5.51,86.09c-1.7,7.15-2.7,14.57-2.9,22.19h85.72L5.51,86.09z"/>
	<path class="st1" d="M108.11,2.8C100.49,3,93.07,4,85.92,5.69l22.18,82.8V2.8z"/>
	<path class="st1" d="M80.13,7.24c-7.24,2.15-14.16,5.03-20.68,8.56l42.86,74.24L80.13,7.24z"/>
	<path class="st1" d="M142.09,215.31c7.23-2.15,14.16-5.03,20.67-8.57l-42.86-74.23L142.09,215.31z"/>
	<path class="st1" d="M114.11,219.77c7.62-0.21,15.04-1.2,22.19-2.9l-22.19-82.8V219.77z"/>
	<path class="st1" d="M2.6,114.28c0.21,7.62,1.2,15.04,2.9,22.19l82.81-22.19H2.6z"/>
</g>
<path class="st2" d="M219.57,114.28c0.03-1,0.04-1.99,0.04-3c0-1.01-0.02-2.01-0.04-3h-85.68l82.78-22.18
	c-0.46-1.95-0.98-3.89-1.55-5.8l-82.78,22.18l74.22-42.85c-0.95-1.76-1.96-3.49-3.01-5.19l-74.21,42.85l60.59-60.59
	c-1.37-1.45-2.79-2.87-4.24-4.24L125.1,93.04l42.85-74.21c-1.7-1.05-3.43-2.05-5.19-3.01L119.9,90.04l22.18-82.79
	c-0.43-0.13-0.86-0.26-1.29-0.38l-2.87-0.77c-0.54-0.14-1.08-0.27-1.63-0.4l-22.18,82.79V2.8c-1-0.03-2.01-0.04-3.02-0.04
	c-1,0-1.99,0.02-2.98,0.04v85.69L85.92,5.69c-0.41,0.1-0.83,0.2-1.24,0.3l-3.65,0.98c-0.3,0.09-0.61,0.18-0.91,0.27l22.19,82.8
	L59.45,15.8c-0.42,0.23-0.84,0.47-1.26,0.7l-2.61,1.51c-0.44,0.26-0.89,0.53-1.32,0.8l42.86,74.23l-60.6-60.6
	c-0.64,0.6-1.26,1.21-1.89,1.83l-0.55,0.55c-0.61,0.61-1.21,1.23-1.8,1.86l60.6,60.6L18.64,54.42c-0.13,0.21-0.26,0.41-0.39,0.62
	L16,58.94c-0.12,0.23-0.25,0.45-0.37,0.67l74.25,42.87L7.06,80.29c-0.03,0.11-0.07,0.23-0.1,0.34l-1.33,4.98
	c-0.04,0.16-0.08,0.32-0.12,0.47l82.82,22.19H2.6c-0.02,0.64-0.02,1.27-0.03,1.91v2.19c0.01,0.63,0.01,1.27,0.03,1.9h85.72
	L5.51,136.47c0.03,0.12,0.06,0.25,0.09,0.37l1.39,5.2c0.02,0.08,0.05,0.15,0.07,0.23l82.82-22.19l-74.25,42.87
	c0.07,0.13,0.14,0.26,0.21,0.39l2.51,4.34c0.09,0.15,0.19,0.31,0.29,0.46l74.24-42.86l-60.61,60.61c0.46,0.48,0.92,0.96,1.38,1.43
	l1.41,1.41c0.48,0.47,0.96,0.94,1.45,1.4l60.61-60.61l-42.86,74.24c0.2,0.12,0.39,0.25,0.59,0.37l3.91,2.26
	c0.23,0.13,0.46,0.26,0.69,0.39l42.87-74.25l-22.19,82.81c0.19,0.06,0.39,0.12,0.58,0.17l4.38,1.17c0.28,0.07,0.55,0.14,0.83,0.2
	l22.19-82.8v85.7c0.99,0.03,1.98,0.04,2.98,0.04c1.01,0,2.02-0.02,3.02-0.04v-85.7l22.19,82.8c0.41-0.1,0.81-0.2,1.22-0.3l3.61-0.97
	c0.32-0.09,0.64-0.19,0.96-0.29l-22.19-82.8l42.86,74.23c0.62-0.34,1.24-0.69,1.86-1.04l1.14-0.66c0.74-0.43,1.47-0.87,2.19-1.32
	l-42.85-74.22l60.59,60.59c1.45-1.38,2.87-2.79,4.24-4.24l-60.59-60.59l74.22,42.85c1.05-1.7,2.05-3.43,3.01-5.19l-74.23-42.85
	l82.79,22.18c0.57-1.91,1.09-3.84,1.55-5.8l-82.78-22.18H219.57z"/>
<circle class="st3" cx="111.09" cy="111.28" r="18.39"/>
</svg>
