<svg height="68" width="192" xmlns="http://www.w3.org/2000/svg" xmlns:xlink="http://www.w3.org/1999/xlink"><clipPath id="a"><path d="m0 .0117188h1560v579.9882812h-1560z"/></clipPath><g transform="matrix(.125 0 0 -.125 0 72.499903)"><g clip-path="url(#a)"><path d="m1242.05 290.023c-6.98 1.172-63.33 6.719-99.42 4.805-20.08-1.062-105.29-10.578-142.13-17.848-32.297-6.382-77.461-16.421-126.855-17.105-61.094-.859-89.922 12.32-106.04 18.941-16.089 6.645-29.121 18.629-34.453 24.704-4.781 5.488-5.093 14.648-5.093 14.648s52.996 56.613 78.437 106.211c21.758 42.383 28.199 73.496 30.106 88.359 1.933 14.856-1.868 27.129-9.551 33-7.754 5.86-19.715 7.383-30.887 1.172-15.449-8.535-29.57-25.637-40.871-41.574-11.262-15.945-26.922-39.024-38.328-78.106-12.422-42.714-14.453-60.886-14.785-70.703-.356-9.785.859-26.836.859-26.836s-12.609-17.011-26.621-30.527c-14.004-13.488-29.668-25.719-48.75-22.516-14.707 2.485-16.098 19.45-16.273 28.348-.157 8.867 3.976 20.379 5.253 30.145 1.301 9.726 2.114 6.925-1.941 10.781-4.07 3.887-9.719 2.226-17.676 2.031-7.937-.195-6.23-4.91-10.715-12.695-4.453-7.774-15.23-30.36-28.23-42.051-13.008-11.676-18.391-11.398-28.621-10.094-10.227 1.289-16.153 6.149-20.488 15.172-4.356 9.024-2.766 41.621-3.364 50.527-.64 8.887-4.898 15.286-12.422 19.094-9.082 4.637-19.019 2.215-27.578-4.836-8.855-7.254-23.992-28.367-30.406-38.867-6.43-10.527-19.809-25.508-23.32-25.379-4.18.145-3.789 7.196-2.356 19.266.949 7.988 1.864 18.594 2.157 27.949.343 9.297-4.668 13.215-13.922 15.402-9.243 2.176-17.075-2.765-22.766-10.871-6.57-9.336-19.27-24.961-32.449-41.758-13.203-16.796-34.223-36.617-42.129-35.89-7.934.762-11.457 6.441-14.399 15.894-2.925 9.442 1.606 45.672 3.008 59.157 1.407 13.496 10.449 72.433 17.141 103.476 6.687 31.028 9.18 35.617 15.105 58.281 5.911 22.657 7.661 18.77 5.688 29.571-1.945 10.801-7.539 10.617-13.574 12.226-5.996 1.614-8.696 1.719-14.375-.879-5.704-2.617-10.051-4.871-13.813-19.199-3.765-14.344-11.656-38.945-34.351-87.168-22.688-48.222-48.848-90.215-76.567-133.008-23.887-36.886-35.801-40.304-44.004-38.468-6.836 1.543-7.5 11.074-7.676 19.465-.195 8.418 2.278 20.324 6.528 35.109 4.258 14.773 15.445 43.894 25.613 68.262 10.203 24.382 31.082 67.156 48.086 104.843 18.606 41.25 21.941 59.442 23.809 65.282 2.414 7.57-4.981 10.636-10.965 13.175-5.981 2.547-15.61-.304-15.61-.304-6.355-2.071-11.14-3.555-16.492-9.442-5.351-5.89-20.886-16.574-28.105-18.742-5.266-1.601-5.574-4.394-2.625-9.492 0 0 1.426-5.723 7.996-5 6.555.703 5.078 1.582 12.109 2.734 7.024 1.153 7.735-6.894 3.074-19.804-4.668-12.891-23.164-58.965-35.464-91.68-12.368-32.695-44.3207-107.227-47.4926-142.438-2.5859-28.257-4.7734-46.597 12.8006-62.207 23.344-20.742 74.453 21.43 92.426 56.157 11.934 22.98 56.094 105.929 64.156 123.371 8.071 17.453 23.149 49.14 20.512 41.281-2.578-7.844-17.285-70.324-23.906-126.105-6.633-55.754 12.605-60.969 25.918-67.043 13.32-6.055 30.679 4.878 39.746 11.582 9.136 6.66 42.949 50.656 45.933 56.632 3.012 5.95 10.317 5.938 10.18 2.668-.09-3.273.039-29.074 4.781-40.433 4.746-11.367 9.192-17.129 22.563-22.27 13.32-5.113 21.012 3.598 36.48 25.156 15.918 22.145 23.989 42.848 27.629 47.282 5.027 6.074 4.817-3.36 5.645-12.332.925-9.914 1.406-26.653 13.508-41.078 12.085-14.414 20.386-21.704 44.746-18.789 24.375 2.871 47.773 35.617 47.773 35.617s2.051-22.004 17.832-37.004c15.816-15.039 23.609-14.551 47.52-11.645 23.914 2.871 63.211 54.43 63.211 54.43s17.902-23.879 39.472-35.934c26.946-15.054 79.082-25.23 123.86-25.855 44.793-.625 117.449 12.5 174.718 26.66 50.48 12.5 110.52 19.18 132.91 19.781 22.45.625 51.84-4.84 54.25-2.593 2.41 2.246 11.29 6.738 4.32 7.921zm-484.777 173.457c22.793 38.868 43.227 57.559 49.789 54.922 6.543-2.636 6.5-4.433 1.754-18.75-4.707-14.277-14.324-47.675-39.668-83.554-25.386-35.879-44.878-60.496-44.878-60.496s3.875 58.23 33.003 107.878z" fill="#1c95cd" fill-rule="evenodd"/></g><path d="m597.488 411.898c.039.547-.879 1.914 1.875 1.633 2.739-.285 5.157-1.222 5.449-1.328.278-.109 1.965-.168 1.965-.168s1.594 7.051 2.285 7.785c.672.723 2.09.977 2.801 2.364.715 1.394 1.914 3.425 4.426 4.48 2.488 1.055 2.41 1.164 4.973 1.055 2.539-.078 5.758.078 7.633-.633 1.898-.734 2.421-.949 3.703-2.402 1.281-1.477 2.863-2.375 2.785-4.172-.051-1.797 0-2.274-.215-3.692-.234-1.394-1.047-2.129-.219-3.406.805-1.242 1.156-2.023.942-3.527-.286-1.504.418-3.602-1.016-4.219-1.445-.625-5.98-3.106-7.895-3.516-1.89-.41-8.496-2.449-10.23-2.48-1.684-.02-7.188-.125-8.984.031-1.782.156-5.911.692-6.614 2.129-.73 1.453-1.379 2.039-1.902 3.758-.488 1.711-1.762 6.308-1.762 6.308z" fill="#1c95cd" fill-rule="evenodd"/><g fill="#231f20"><path d="m0 143.191h15.1289v-43.4722c0-12.8555 4.0899-21.25 15.625-21.25 11.5703 0 15.6523 8.3945 15.6523 21.25v43.4722h15.125v-48.1012c0-20.1953-11.4257-28.496-30.7773-28.496-19.3164 0-30.7539 8.3007-30.7539 28.496z"/><path d="m83.6328 143.191h18.5622l28.723-56.3277h.227v56.3277h14.468v-75.3082h-18.496l-28.8045 56.3282h-.1992v-56.3282h-14.4805z"/><path d="m166.953 143.191h15.109v-75.3082h-15.109z"/><path d="m204.172 143.191h15.113v-63.4566h29.262v-11.8516h-44.375z"/><path d="m307.043 148.84v-107.9494h-7.481v107.9494z"/><path d="m420.449 94.2109c0-22.2304-16.277-27.6171-27.312-27.6171-10.996 0-27.278 5.3867-27.278 27.6171v48.9801h7.411v-48.9801c0-12.2851 6.835-21.1523 19.867-21.1523 13.074 0 19.863 8.8672 19.863 21.1523v48.9801h7.449z"/><path d="m443.547 109.973c0 4.215 0 8.535-.449 12.925h6.597v-9.785h.219c2.266 4.946 6.395 11.098 17.832 11.098 13.555 0 18.75-9.066 18.75-21.137v-35.1912h-6.808v33.4332c0 10.395-3.641 17.075-13.055 17.075-12.403 0-16.274-10.903-16.274-20.0785v-30.4297h-6.812z"/><path d="m516.301 137.629h-6.821v9.019h6.821zm-6.821-14.731h6.821v-55.0152h-6.821z"/><path d="m558.508 67.8828h-7.988l-18.672 55.0152h7.441l15.215-47.5542h.191l15.996 47.5542h7.09z"/><path d="m630.145 69.6016c-4.754-1.9336-10.907-3.0078-15.985-3.0078-18.215 0-25.039 12.2851-25.039 28.789 0 16.8512 9.297 28.8282 23.191 28.8282 15.571 0 21.918-12.5 21.918-27.2852v-3.457h-37.675c0-11.6602 6.289-21.0547 18.164-21.0547 4.937 0 12.183 2.0664 15.426 4.1015zm-3.336 29.6679c0 9.6255-3.911 19.1215-14.036 19.1215-10.058 0-16.218-10.039-16.218-19.1215z"/><path d="m653.113 110.637c0 6.011 0 8.301-.425 12.261h6.824v-10.562h.183c2.485 6.172 7.153 11.875 14.121 11.875 1.645 0 3.579-.316 4.77-.649v-7.124c-1.391.464-3.227.664-4.961.664-10.793 0-13.711-12.114-13.711-22.0122v-27.207h-6.801z"/><path d="m690.793 75.8711c4.07-2.0313 9.082-3.457 14.336-3.457 6.465 0 12.207 3.5703 12.207 9.8203 0 13.0468-26.445 11.0351-26.445 26.9766 0 10.894 8.875 15 17.91 15 2.929 0 8.75-.649 13.594-2.461l-.657-5.938c-3.515 1.602-8.406 2.579-12.176 2.579-7.011 0-11.874-2.168-11.874-9.18 0-10.2344 27.109-8.945 27.109-26.9766 0-11.6367-10.942-15.6406-19.238-15.6406-5.278 0-10.571.625-15.414 2.5937z"/><path d="m749.734 137.629h-6.812v9.019h6.812zm-6.812-14.731h6.812v-55.0152h-6.812z"/><path d="m796.555 117.102h-12.524v-35.6059c0-4.9805 1.821-9.082 7.348-9.082 2.586 0 4.297.5664 6.266 1.3086l.429-5.6094c-1.629-.6797-4.988-1.5195-8.328-1.5195-12.09 0-12.527 8.3007-12.527 18.3554v32.1528h-10.781v5.796h10.781v13.301l6.812 2.363v-15.664h12.524z"/><path d="m851.57 69.6016c-4.722-1.9336-10.906-3.0078-15.957-3.0078-18.238 0-25.054 12.2851-25.054 28.789 0 16.8512 9.296 28.8282 23.218 28.8282 15.532 0 21.887-12.5 21.887-27.2852v-3.457h-37.644c0-11.6602 6.277-21.0547 18.144-21.0547 4.949 0 12.156 2.0664 15.406 4.1015zm-3.34 29.6679c0 9.6255-3.906 19.1215-14.042 19.1215-10.016 0-16.168-10.039-16.168-19.1215zm-11.328 44.9025h8.52l-13.574-15.527h-4.985z"/><path d="m954.102 67.8828h-6.805v8.7656h-.207c-3.672-7.0468-9.285-10.0546-17.176-10.0546-15.102 0-22.641 12.5-22.641 28.789 0 16.7382 6.489 28.8282 22.641 28.8282 10.816 0 16.219-7.871 17.176-10.586h.207v35.215h6.805zm-23.086 4.5313c12.082 0 16.281 12.9453 16.281 22.9687 0 10.0552-4.199 23.0082-16.281 23.0082-12.977 0-16.297-12.329-16.297-23.0082 0-10.664 3.32-22.9687 16.297-22.9687z"/><path d="m1013.37 69.6016c-4.76-1.9336-10.91-3.0078-16.007-3.0078-18.215 0-25.027 12.2851-25.027 28.789 0 16.8512 9.305 28.8282 23.203 28.8282 15.551 0 21.891-12.5 21.891-27.2852v-3.457h-37.657c0-11.6602 6.289-21.0547 18.165-21.0547 4.922 0 12.192 2.0664 15.432 4.1015zm-3.38 29.6679c0 9.6255-3.85 19.1215-14.006 19.1215-10.039 0-16.211-10.039-16.211-19.1215z"/><path d="m1072.38 143.191h7.48v-68.8277h30.21v-6.4805h-37.69z"/><path d="m1157.75 76.7305h-.25c-3-6.586-10.65-10.1367-17.45-10.1367-15.65 0-18.12 10.5859-18.12 15.5273 0 18.4769 19.62 19.3359 33.86 19.3359h1.31v2.813c0 9.355-3.36 14.121-12.48 14.121-5.75 0-11.14-1.289-16.23-4.536v6.567c4.18 2.066 11.33 3.789 16.23 3.789 13.56 0 19.27-6.152 19.27-20.488v-24.2972c0-4.4141 0-7.7539.54-11.543h-6.68zm-.65 18.8828h-1.93c-11.78 0-25.81-1.1875-25.81-13.2578 0-7.2657 5.19-9.9414 11.46-9.9414 15.95 0 16.28 13.9257 16.28 19.8593z"/><path d="m1228.96 80.832c0-4.1836 0-8.5586.47-12.9492h-6.63v9.8242h-.18c-2.32-4.9609-6.38-11.1132-17.78-11.1132-13.62 0-18.82 9.0585-18.82 21.1328v35.1714h6.8v-33.4175c0-10.3867 3.68-17.0664 13.07-17.0664 12.38 0 16.28 10.9179 16.28 20.0742v30.4097h6.79z"/><path d="m1247.75 75.8711c4.1-2.0313 9.06-3.457 14.35-3.457 6.49 0 12.2 3.5703 12.2 9.8203 0 13.0468-26.44 11.0351-26.44 26.9766 0 10.894 8.85 15 17.9 15 2.9 0 8.76-.649 13.6-2.461l-.65-5.938c-3.54 1.602-8.43 2.579-12.18 2.579-7 0-11.87-2.168-11.87-9.18 0-10.2344 27.09-8.945 27.09-26.9766 0-11.6367-10.89-15.6406-19.21-15.6406-5.27 0-10.57.625-15.42 2.5937z"/><path d="m1331.5 76.7305h-.22c-3.02-6.586-10.67-10.1367-17.46-10.1367-15.68 0-18.14 10.5859-18.14 15.5273 0 18.4769 19.62 19.3359 33.86 19.3359h1.31v2.813c0 9.355-3.36 14.121-12.56 14.121-5.67 0-11.1-1.289-16.15-4.536v6.567c4.2 2.066 11.33 3.789 16.15 3.789 13.64 0 19.35-6.152 19.35-20.488v-24.2972c0-4.4141 0-7.7539.54-11.543h-6.68zm-.65 18.8828h-1.94c-11.77 0-25.84-1.1875-25.84-13.2578 0-7.2657 5.22-9.9414 11.5-9.9414 15.95 0 16.28 13.9257 16.28 19.8593z"/><path d="m1359.77 109.973c0 4.215 0 8.535-.45 12.925h6.61v-9.785h.2c2.28 4.946 6.4 11.098 17.81 11.098 13.61 0 18.79-9.066 18.79-21.137v-35.1912h-6.78v33.4332c0 10.395-3.69 17.075-13.09 17.075-12.38 0-16.31-10.903-16.31-20.0785v-30.4297h-6.78z"/><path d="m1425.69 109.973c0 4.215 0 8.535-.42 12.925h6.61v-9.785h.2c2.26 4.946 6.35 11.098 17.8 11.098 13.6 0 18.77-9.066 18.77-21.137v-35.1912h-6.8v33.4332c0 10.395-3.67 17.075-13.03 17.075-12.44 0-16.31-10.903-16.31-20.0785v-30.4297h-6.82z"/><path d="m1528.55 69.6016c-4.73-1.9336-10.92-3.0078-15.94-3.0078-18.29 0-25.04 12.2851-25.04 28.789 0 16.8512 9.25 28.8282 23.16 28.8282 15.54 0 21.94-12.5 21.94-27.2852v-3.457h-37.68c0-11.6602 6.27-21.0547 18.13-21.0547 4.98 0 12.21 2.0664 15.43 4.1015zm-3.32 29.6679c0 9.6255-3.91 19.1215-14.06 19.1215-10.03 0-16.18-10.039-16.18-19.1215z"/></g></g></svg>